<?xml version="1.0" encoding="utf-8"?><svg xmlns="http://www.w3.org/2000/svg" xmlns:xlink="http://www.w3.org/1999/xlink"><symbol viewBox="0 0 18.7 35.4" id="arrow" xmlns="http://www.w3.org/2000/svg"><path d="M18.7 17L1.5 0 .1 1.4l16.2 16.3L0 34l1.6 1.4 17.1-17z"/></symbol><symbol viewBox="0 0 15.642 15.642" id="close" xmlns="http://www.w3.org/2000/svg"><path fill-rule="evenodd" d="M8.882 7.821l6.541-6.541A.75.75 0 1 0 14.362.219L7.821 6.76 1.28.22A.75.75 0 1 0 .219 1.281L6.76 7.822l-6.54 6.54a.75.75 0 0 0 1.06 1.061l6.541-6.541 6.541 6.541a.75.75 0 1 0 1.06-1.061l-6.54-6.541z"/></symbol><symbol viewBox="0 0 50 50" id="header-phone" xmlns="http://www.w3.org/2000/svg"><defs><style>.ccls-1{fill:#fff;fill-rule:evenodd}</style></defs><path id="cForma_1" data-name="Forma 1" class="ccls-1" d="M613.962 188.521l-4.574-4.574a3.663 3.663 0 0 0-5.106.1c-2.978 3.3-4.154 3.724-4.472 3.837a8.394 8.394 0 0 1-1.6.1c-4.257 0-9.905-3.192-13.834-8.094-3.3-4.041-4.9-8.411-4.257-11.705.1-.215.532-1.494 3.837-4.472a3.383 3.383 0 0 0 1.167-2.558 3.75 3.75 0 0 0-1.064-2.558l-4.574-4.574a3.561 3.561 0 0 0-4.472-.43C570.433 156.9 565 161.375 565 164.567 565 178.2 589.8 203 603.433 203c3.305 0 7.766-5.433 10.969-10.007a3.551 3.551 0 0 0-.44-4.472zm-1.167 3.408c-3.939 5.535-7.562 9.045-9.26 9.045-12.565 0-36.407-23.841-36.407-36.407 0-1.811 3.408-5.32 9.046-9.26a1.337 1.337 0 0 1 1.811.317l4.574 4.574a1.575 1.575 0 0 1-.1 2.128c-3.622 3.306-4.256 4.789-4.471 5.638-.747 3.94.962 8.831 4.686 13.415 4.369 5.321 10.437 8.831 15.431 8.831a11.349 11.349 0 0 0 2.026-.215c.849-.215 2.343-.85 5.638-4.472a1.517 1.517 0 0 1 2.128-.1l4.686 4.686a1.342 1.342 0 0 1 .212 1.82zm-7.132-29.06a15.1 15.1 0 0 1 4.155 13.3l2.026.317a17.455 17.455 0 0 0-4.687-15.113A17.1 17.1 0 0 0 591.3 156.8l.43 2.026a14.815 14.815 0 0 1 13.933 4.043zm-1.6 12.565a9.708 9.708 0 0 0-2.66-8.513 9.521 9.521 0 0 0-8.943-2.558l.429 2.026a7.719 7.719 0 0 1 7.03 2.026 7.516 7.516 0 0 1 2.128 6.7z" transform="translate(-565 -153)"/></symbol></svg>