<?xml version="1.0" encoding="utf-8"?><svg xmlns="http://www.w3.org/2000/svg" xmlns:xlink="http://www.w3.org/1999/xlink"><symbol viewBox="0 0 18.7 35.4" id="arrow" xmlns="http://www.w3.org/2000/svg"><path d="M18.7 17L1.5 0 .1 1.4l16.2 16.3L0 34l1.6 1.4 17.1-17z"/></symbol><symbol viewBox="0 0 15.642 15.642" id="close" xmlns="http://www.w3.org/2000/svg"><path fill-rule="evenodd" d="M8.882 7.821l6.541-6.541A.75.75 0 1 0 14.362.219L7.821 6.76 1.28.22A.75.75 0 1 0 .219 1.281L6.76 7.822l-6.54 6.54a.75.75 0 0 0 1.06 1.061l6.541-6.541 6.541 6.541a.75.75 0 1 0 1.06-1.061l-6.54-6.541z"/></symbol><symbol viewBox="0 0 50 50" id="header-phone" xmlns="http://www.w3.org/2000/svg"><defs><style>.ccls-1{fill:#fff;fill-rule:evenodd}</style></defs><path id="cForma_1" data-name="Forma 1" class="ccls-1" d="M613.962 188.521l-4.574-4.574a3.663 3.663 0 0 0-5.106.1c-2.978 3.3-4.154 3.724-4.472 3.837a8.394 8.394 0 0 1-1.6.1c-4.257 0-9.905-3.192-13.834-8.094-3.3-4.041-4.9-8.411-4.257-11.705.1-.215.532-1.494 3.837-4.472a3.383 3.383 0 0 0 1.167-2.558 3.75 3.75 0 0 0-1.064-2.558l-4.574-4.574a3.561 3.561 0 0 0-4.472-.43C570.433 156.9 565 161.375 565 164.567 565 178.2 589.8 203 603.433 203c3.305 0 7.766-5.433 10.969-10.007a3.551 3.551 0 0 0-.44-4.472zm-1.167 3.408c-3.939 5.535-7.562 9.045-9.26 9.045-12.565 0-36.407-23.841-36.407-36.407 0-1.811 3.408-5.32 9.046-9.26a1.337 1.337 0 0 1 1.811.317l4.574 4.574a1.575 1.575 0 0 1-.1 2.128c-3.622 3.306-4.256 4.789-4.471 5.638-.747 3.94.962 8.831 4.686 13.415 4.369 5.321 10.437 8.831 15.431 8.831a11.349 11.349 0 0 0 2.026-.215c.849-.215 2.343-.85 5.638-4.472a1.517 1.517 0 0 1 2.128-.1l4.686 4.686a1.342 1.342 0 0 1 .212 1.82zm-7.132-29.06a15.1 15.1 0 0 1 4.155 13.3l2.026.317a17.455 17.455 0 0 0-4.687-15.113A17.1 17.1 0 0 0 591.3 156.8l.43 2.026a14.815 14.815 0 0 1 13.933 4.043zm-1.6 12.565a9.708 9.708 0 0 0-2.66-8.513 9.521 9.521 0 0 0-8.943-2.558l.429 2.026a7.719 7.719 0 0 1 7.03 2.026 7.516 7.516 0 0 1 2.128 6.7z" transform="translate(-565 -153)"/></symbol><symbol viewBox="0 0 61 45" id="tab-01" xmlns="http://www.w3.org/2000/svg"><defs><style>.dcls-1{fill:#fff;fill-rule:evenodd}</style></defs><path class="dcls-1" d="M60.714 12.429L48.883.655a.979.979 0 0 0-1.378 0L41.59 6.542a.967.967 0 0 0 0 1.371l.59.587-1.356 1.35a3.059 3.059 0 0 1-3.4.594 8.453 8.453 0 0 0-7.5.277 6.594 6.594 0 0 0-3.814.2 3.045 3.045 0 0 1-3.217-.672l-2.435-2.424.29-.289a.963.963 0 0 0 0-1.37L14.833.279a.977.977 0 0 0-1.378 0L.286 13.385a.964.964 0 0 0 0 1.37l5.915 5.887a.978.978 0 0 0 1.378 0l.353-.351L9.647 22a2.964 2.964 0 0 1 .831 1.557 15.192 15.192 0 0 0 4.238 8.006l.323.322a3.476 3.476 0 0 0 .064 4.868 3.507 3.507 0 0 0 2.48 1.02h.175a3.495 3.495 0 0 0 3.5 3.664h.078a3.509 3.509 0 0 0 5.983 2.544 3.7 3.7 0 0 0 .16-.172 3.274 3.274 0 0 0 3.394-.772 3.234 3.234 0 0 0 .74-1.13l.1.1a3.282 3.282 0 0 0 5.388-1.171 3.295 3.295 0 0 0 4.242-.331 3.235 3.235 0 0 0 .959-2.306 3.3 3.3 0 0 0-.092-.771 3.256 3.256 0 0 0 2.012-5.081l.781-.778a15.181 15.181 0 0 0 4.256-8.106 2.626 2.626 0 0 1 .744-1.388l2.907-2.892.511.508a.978.978 0 0 0 1.378 0l5.916-5.887a.966.966 0 0 0-.001-1.375zM6.888 18.588L2.35 14.073 14.142 2.338l4.538 4.516zm11.8 16.8a1.564 1.564 0 0 1-2.2 0 1.546 1.546 0 0 1 0-2.193 1.554 1.554 0 0 1 2.196 2.19zm3.676 3.658a1.55 1.55 0 1 1 0-2.193 1.551 1.551 0 0 1-.004 2.19zm3.581 3.564a1.55 1.55 0 1 1 0-2.193 1.553 1.553 0 0 1-.004 2.19zm16.547-7.443a1.331 1.331 0 0 1-1.875 0l-9.452-9.4a.977.977 0 0 0-1.378 0 .967.967 0 0 0 0 1.371l10.181 10.13a1.317 1.317 0 0 1 0 1.868 1.335 1.335 0 0 1-1.878 0l-1.717-1.709-.029-.029-.009-.009-7.895-7.857a.979.979 0 0 0-1.378 0 .967.967 0 0 0 0 1.371l7.921 7.882a1.317 1.317 0 0 1-.013 1.854 1.334 1.334 0 0 1-1.876 0l-8.589-8.547a.978.978 0 0 0-1.377 0 .965.965 0 0 0 0 1.371l6.366 6.336v.006a1.313 1.313 0 0 1 0 1.865 1.317 1.317 0 0 1-.938.387 1.3 1.3 0 0 1-.251-.024 3.494 3.494 0 0 0-3.467-4.006h-.078a3.5 3.5 0 0 0-3.5-3.566h-.175a3.472 3.472 0 0 0-1.021-2.64 3.518 3.518 0 0 0-3.27-.931l-.7-.695a13.271 13.271 0 0 1-3.7-6.991 4.883 4.883 0 0 0-1.368-2.572l-1.717-1.709 9.771-9.724 2.435 2.423a4.977 4.977 0 0 0 3.515 1.43 5.125 5.125 0 0 0 1.745-.306 4.56 4.56 0 0 1 .851-.217l-6.032 6a3.874 3.874 0 0 0 0 5.5 3.926 3.926 0 0 0 5.526 0l3.03-3.015.82.817.03.036.033.033.028.027L42.489 33.3a1.317 1.317 0 0 1-.001 1.864zm6.137-14.464a4.545 4.545 0 0 0-1.284 2.417 13.272 13.272 0 0 1-3.716 7.078l-.749.745-6.163-6.133c.134.009.268.016.4.016a4.989 4.989 0 0 0 1.9-.368.973.973 0 1 0-.738-1.8c-2.507 1.022-5.513-1.792-5.848-2.116l-.017-.016-.034-.035-.03-.03-.82-.817.93-.926a.965.965 0 0 0 0-1.371.978.978 0 0 0-1.377 0l-1.617 1.609-3.717 3.7a1.967 1.967 0 0 1-2.77 0 1.941 1.941 0 0 1 0-2.756l6.416-6.385a6.484 6.484 0 0 1 7.233-1.309 5.022 5.022 0 0 0 5.582-.989l1.356-1.349 7.974 7.935zm5.485-3.069l-10.453-10.4 4.537-4.516 10.454 10.4zm.981-4.744a.97.97 0 1 1-.974.969.971.971 0 0 1 .97-.972zm-48.711.957a.97.97 0 1 1-.974.97.973.973 0 0 1 .97-.973z"/></symbol><symbol viewBox="0 0 55.938 55" id="tab-02" xmlns="http://www.w3.org/2000/svg"><defs><style>.ecls-1{fill:#fff;fill-rule:evenodd}</style></defs><path class="ecls-1" d="M30.562 1.105a3.593 3.593 0 0 0-5.186 0 3.472 3.472 0 0 0-.953 2.619l.178 2.695a3.366 3.366 0 0 0 1.53 2.607 3.419 3.419 0 0 0 3.676 0 3.364 3.364 0 0 0 1.53-2.607l.178-2.695a3.474 3.474 0 0 0-.953-2.619zm-1.273 2.476l-.178 2.695a1.143 1.143 0 0 1-2.283 0l-.179-2.695a1.277 1.277 0 0 1 .355-.975 1.338 1.338 0 0 1 1.93 0 1.277 1.277 0 0 1 .355.975zm7.5 12.427l-.31-1.684a5.537 5.537 0 0 0-4.434-4.395 5.646 5.646 0 0 0-1.03-.094h-.933a1.124 1.124 0 0 0-.789.321 1.9 1.9 0 0 1-2.654 0 1.124 1.124 0 0 0-.789-.321h-.933a5.646 5.646 0 0 0-1.03.094 5.537 5.537 0 0 0-4.434 4.395l-.31 1.684a1.082 1.082 0 0 0 .241.9 1.123 1.123 0 0 0 .857.394h15.451a1.123 1.123 0 0 0 .856-.394 1.082 1.082 0 0 0 .244-.9zm-15.213-.9l.072-.39a3.313 3.313 0 0 1 2.652-2.629 3.455 3.455 0 0 1 .617-.057h.512a4.161 4.161 0 0 0 5.074 0h.512a3.446 3.446 0 0 1 .617.057 3.312 3.312 0 0 1 2.652 2.629l.072.39H21.579zm8.983 23.7a3.593 3.593 0 0 0-5.186 0 3.47 3.47 0 0 0-.953 2.618l.178 2.7a3.364 3.364 0 0 0 1.53 2.607 3.419 3.419 0 0 0 3.676 0 3.364 3.364 0 0 0 1.53-2.607l.178-2.7a3.47 3.47 0 0 0-.95-2.621zm-1.273 2.475l-.178 2.7a1.143 1.143 0 0 1-2.283 0l-.179-2.7a1.278 1.278 0 0 1 .355-.975 1.338 1.338 0 0 1 1.93 0 1.278 1.278 0 0 1 .358.972zm7.5 12.426l-.31-1.683a5.537 5.537 0 0 0-4.434-4.395 5.647 5.647 0 0 0-1.03-.1h-.933a1.125 1.125 0 0 0-.789.322 1.9 1.9 0 0 1-2.654 0 1.125 1.125 0 0 0-.789-.322h-.933a5.656 5.656 0 0 0-1.03.1 5.537 5.537 0 0 0-4.434 4.395l-.31 1.683a1.083 1.083 0 0 0 .241.9 1.123 1.123 0 0 0 .857.394h15.451a1.123 1.123 0 0 0 .856-.394 1.087 1.087 0 0 0 .247-.903zm-15.213-.9l.072-.39a3.312 3.312 0 0 1 2.652-2.628 3.365 3.365 0 0 1 .617-.057h.513a4.168 4.168 0 0 0 5.072 0h.513a3.445 3.445 0 0 1 .617.056 3.312 3.312 0 0 1 2.652 2.629l.072.39H21.579zM11.398 19.96a3.594 3.594 0 0 0-5.187 0 3.472 3.472 0 0 0-.953 2.618l.178 2.7a3.366 3.366 0 0 0 1.53 2.608 3.425 3.425 0 0 0 3.676 0 3.366 3.366 0 0 0 1.53-2.608l.178-2.7a3.476 3.476 0 0 0-.946-2.623zm-1.274 2.475l-.178 2.7a1.143 1.143 0 0 1-2.283 0l-.179-2.7a1.274 1.274 0 0 1 .355-.974 1.336 1.336 0 0 1 1.93 0 1.274 1.274 0 0 1 .361.969zm7.5 12.427l-.31-1.684a5.538 5.538 0 0 0-4.434-4.395 5.736 5.736 0 0 0-1.03-.094h-.933a1.128 1.128 0 0 0-.789.321 1.9 1.9 0 0 1-2.654 0 1.128 1.128 0 0 0-.789-.321h-.933a5.736 5.736 0 0 0-1.03.094 5.538 5.538 0 0 0-4.434 4.395l-.31 1.684a1.084 1.084 0 0 0 .241.9 1.126 1.126 0 0 0 .857.394h15.451a1.126 1.126 0 0 0 .856-.394 1.084 1.084 0 0 0 .25-.905zm-15.212-.9l.071-.39a3.312 3.312 0 0 1 2.652-2.629 3.365 3.365 0 0 1 .617-.057h.517a4.164 4.164 0 0 0 5.074 0h.512a3.357 3.357 0 0 1 .617.057 3.311 3.311 0 0 1 2.652 2.629l.072.39H2.421zm47.3-14a3.594 3.594 0 0 0-5.187 0 3.475 3.475 0 0 0-.952 2.618l.178 2.7a3.366 3.366 0 0 0 1.53 2.608 3.425 3.425 0 0 0 3.676 0 3.366 3.366 0 0 0 1.53-2.608l.178-2.7a3.472 3.472 0 0 0-.944-2.625zm-1.273 2.475l-.179 2.7a1.142 1.142 0 0 1-2.282 0l-.179-2.7a1.274 1.274 0 0 1 .355-.974 1.336 1.336 0 0 1 1.93 0 1.274 1.274 0 0 1 .364.967zm7.5 12.427l-.31-1.684a5.538 5.538 0 0 0-4.434-4.395 5.736 5.736 0 0 0-1.03-.094h-.934a1.127 1.127 0 0 0-.788.321 1.9 1.9 0 0 1-2.654 0 1.128 1.128 0 0 0-.789-.321h-.921a5.736 5.736 0 0 0-1.03.094 5.538 5.538 0 0 0-4.434 4.395l-.31 1.684a1.084 1.084 0 0 0 .241.9 1.126 1.126 0 0 0 .856.394h15.451a1.126 1.126 0 0 0 .857-.394 1.088 1.088 0 0 0 .241-.907zm-15.213-.9l.072-.39a3.312 3.312 0 0 1 2.652-2.629 3.357 3.357 0 0 1 .617-.057h.512a4.164 4.164 0 0 0 5.074 0h.512a3.365 3.365 0 0 1 .617.057 3.311 3.311 0 0 1 2.652 2.629l.072.39h-12.78zM22.163 7.087a1.121 1.121 0 0 0-1.414-.687 22.657 22.657 0 0 0-11.082 8.093 1.085 1.085 0 0 0 .257 1.531 1.126 1.126 0 0 0 1.557-.254 20.412 20.412 0 0 1 9.983-7.291 1.094 1.094 0 0 0 .711-1.401zm24.118 7.406a22.585 22.585 0 0 0-7.312-6.461 1.125 1.125 0 0 0-1.518.422 1.088 1.088 0 0 0 .429 1.494 20.36 20.36 0 0 1 6.6 5.813 1.126 1.126 0 0 0 1.557.254 1.085 1.085 0 0 0 .256-1.531zM35.775 6.6c-.19-.069-.383-.136-.576-.2a1.119 1.119 0 0 0-1.414.687 1.094 1.094 0 0 0 .7 1.392c.173.058.348.118.518.18a1.121 1.121 0 0 0 1.433-.649 1.093 1.093 0 0 0-.649-1.419zM21.464 45.394a20.414 20.414 0 0 1-9.983-7.292 1.127 1.127 0 0 0-1.557-.253 1.084 1.084 0 0 0-.257 1.53 22.659 22.659 0 0 0 11.082 8.094 1.123 1.123 0 0 0 1.414-.688 1.094 1.094 0 0 0-.687-1.4zm24.56-7.545a1.129 1.129 0 0 0-1.557.253 20.414 20.414 0 0 1-9.983 7.292 1.094 1.094 0 0 0-.7 1.391 1.123 1.123 0 0 0 1.414.688A22.347 22.347 0 0 0 46.28 39.38a1.085 1.085 0 0 0-.244-1.54z"/></symbol><symbol viewBox="0 0 42 50" id="tab-03" xmlns="http://www.w3.org/2000/svg"><defs><style>.fcls-1{fill:#fff;fill-rule:evenodd}</style></defs><path class="fcls-1" d="M39.48 0H20.16a2.513 2.513 0 0 0-2.52 2.5v5.834H4.2A4.188 4.188 0 0 0 0 12.5v33.332A4.189 4.189 0 0 0 4.2 50h35.28A2.514 2.514 0 0 0 42 47.5v-45A2.514 2.514 0 0 0 39.48 0zm-12.6 35.834v12.5H4.2a2.514 2.514 0 0 1-2.52-2.5V12.5A2.514 2.514 0 0 1 4.2 10h22.68v25.834zm.84-27.5h-8.4V2.5a.838.838 0 0 1 .84-.833h15.12V35h-6.72V9.166a.836.836 0 0 0-.84-.833zM40.32 47.5a.838.838 0 0 1-.84.834H28.56V36.666h11.76V47.5zm0-12.5h-3.36V1.666h2.52a.838.838 0 0 1 .84.833V35zM14.473 14.295h-.086a9.145 9.145 0 1 0 0 18.29h.086c.032 0 .062-.008.093-.01a9.136 9.136 0 0 0 0-18.271c-.031-.004-.061-.01-.093-.01zM6.848 23.44a7.4 7.4 0 0 1 .223-1.773h3.022a20.3 20.3 0 0 0-.079 1.773c0 .535.026 1.054.064 1.561H7.016a7.45 7.45 0 0 1-.168-1.562zm.749 3.227h2.688a11.809 11.809 0 0 0 1.208 3.676A7.548 7.548 0 0 1 7.6 26.666zM10.321 20H7.7a7.561 7.561 0 0 1 3.793-3.464A11.6 11.6 0 0 0 10.321 20zm4.2 10.911h-.067c-.855-.025-1.948-1.58-2.463-4.247h4.972c-.514 2.645-1.594 4.194-2.446 4.246zm7.407-7.471a7.45 7.45 0 0 1-.168 1.561h-2.889a19.794 19.794 0 0 0-.015-3.334H21.7a7.354 7.354 0 0 1 .224 1.772zM21.072 20h-2.448a11.763 11.763 0 0 0-1.114-3.358A7.554 7.554 0 0 1 21.072 20zm-2.411 6.667h2.514a7.547 7.547 0 0 1-3.665 3.57 12 12 0 0 0 1.151-3.571zm-1.41-3.227c0 .546-.024 1.066-.066 1.561H11.76a18.533 18.533 0 0 1 .019-3.334h5.386c.054.557.086 1.147.086 1.772zM16.914 20h-4.882c.53-2.534 1.586-4.01 2.418-4.035h.067c.829.052 1.871 1.521 2.397 4.035zM7.56 41.667h3.36a.833.833 0 1 0 0-1.666H7.56a.833.833 0 1 0 0 1.665zM21 40h-6.72a.833.833 0 1 0 0 1.666H21A.833.833 0 1 0 21 40zm0 3.332h-3.36a.834.834 0 1 0 0 1.667H21a.834.834 0 1 0 0-1.667zm-6.72 0H7.56a.834.834 0 1 0 0 1.667h6.72a.834.834 0 1 0 0-1.667zm21-4.166v6.666a.84.84 0 0 0 1.68 0v-6.666a.84.84 0 0 0-1.68 0zm-2.52-.833a.836.836 0 0 0-.84.833v4.166a.84.84 0 0 0 1.68 0v-4.166a.836.836 0 0 0-.84-.833zm-.84-16.667a.836.836 0 0 0 .84-.833V4.166a.84.84 0 0 0-1.68 0v16.667a.836.836 0 0 0 .84.833zm0 11.667a.837.837 0 0 0 .84-.834v-6.666a.84.84 0 0 0-1.68 0V32.5a.837.837 0 0 0 .84.833z"/></symbol><symbol viewBox="0 0 47 47" id="tab-04" xmlns="http://www.w3.org/2000/svg"><defs><style>.gcls-1{fill:#fff;fill-rule:evenodd}</style></defs><path id="gForma_1" data-name="Forma 1" class="gcls-1" d="M1367.25 811.5h-41.75v-41.75a.75.75 0 1 0-1.5 0v6.333h-2.25a.75.75 0 0 0 0 1.5h2.25v5.583h-2.25a.75.75 0 0 0 0 1.5h2.25v5.583h-2.25a.751.751 0 0 0 0 1.5h2.25v5.583h-2.25a.75.75 0 1 0 0 1.5h2.25v5.584h-2.25a.75.75 0 0 0 0 1.5h2.25v6.333a.752.752 0 0 0 .75.75h11.08v2.251a.75.75 0 0 0 1.5 0V813h17.34v2.251a.75.75 0 0 0 1.5 0V813h11.08a.75.75 0 1 0 0-1.5zm-38.5-1.5a.754.754 0 0 0 .75-.75v-17.5h6.33v17.5a.75.75 0 0 0 1.5 0v-10.418h5.92v10.418a.75.75 0 0 0 1.5 0v-11.167a.752.752 0 0 0-.75-.75h-6.67V791a.746.746 0 0 0-.75-.75h-7.83a.753.753 0 0 0-.75.75v18.25a.754.754 0 0 0 .75.75zm19.25 0a.754.754 0 0 0 .75-.75v-31.667h5.92v31.667a.75.75 0 0 0 1.5 0v-24.584h6.33v24.584a.75.75 0 0 0 1.5 0v-25.334a.752.752 0 0 0-.75-.749h-7.08v-6.334a.753.753 0 0 0-.75-.75H1348a.753.753 0 0 0-.75.75v32.417a.754.754 0 0 0 .75.75z" transform="translate(-1321 -769)"/></symbol><symbol viewBox="0 0 48 52" id="tab-05" xmlns="http://www.w3.org/2000/svg"><defs><style>.hcls-1{fill:#fff;fill-rule:evenodd}</style></defs><path class="hcls-1" d="M37.7 23.891a.832.832 0 0 0-.96.665l-1.3 7.383a.817.817 0 0 0 .68.94.923.923 0 0 0 .14.012.838.838 0 0 0 .83-.677l1.29-7.383a.81.81 0 0 0-.68-.94zm2.19-11.688l-5.37-1.814a.836.836 0 0 0-1.06.5.812.812 0 0 0 .51 1.036l4.71 1.588-.72 4.091a.817.817 0 0 0 .68.94.923.923 0 0 0 .14.012.838.838 0 0 0 .83-.677l.83-4.772a.807.807 0 0 0-.55-.907zm-7.6-2.566l-3.56-1.2a.851.851 0 0 0-1.07.5.817.817 0 0 0 .52 1.036l3.57 1.2a.822.822 0 0 0 .27.045.841.841 0 0 0 .79-.548.809.809 0 0 0-.52-1.033zm-6.78 13.067a5.742 5.742 0 1 0-3.02 0 8.712 8.712 0 0 0-7.34 8.5v4.343a.821.821 0 0 0 .83.814h16.04a.821.821 0 0 0 .83-.814v-4.343a8.712 8.712 0 0 0-7.34-8.504zm-5.58-5.394A4.071 4.071 0 1 1 24 21.273a4.025 4.025 0 0 1-4.07-3.963zm11.25 17.426H16.82v-3.528a7.182 7.182 0 0 1 14.36 0v3.528zm12.49-24.707l-19.4-6.545a.833.833 0 0 0-.54 0l-19.4 6.545a.817.817 0 0 0-.55.907l4.63 26.337a.839.839 0 0 0 .35.53l14.76 10.074a.857.857 0 0 0 .96 0l14.76-10.074a.839.839 0 0 0 .35-.53l4.63-26.337a.817.817 0 0 0-.55-.907zM38 36.663l-14 9.553-14-9.553-4.45-25.321L24 5.115l18.45 6.227zm9.44-28.808L24.27.037a.846.846 0 0 0-.54 0L.56 7.855a.807.807 0 0 0-.55.907l5.35 30.4a.789.789 0 0 0 .34.529l17.82 12.161a.857.857 0 0 0 .96 0L42.3 39.691a.787.787 0 0 0 .34-.529l5.35-30.4a.807.807 0 0 0-.55-.907zm-6.38 30.7L24 50.192 6.94 38.553 1.78 9.168 24 1.668l22.22 7.5z"/></symbol></svg>