<svg xmlns="http://www.w3.org/2000/svg" width="20" height="22" viewBox="0 0 20 22">
  <defs>
    <style>
      .cls-1 {
        fill: #00407a;
        fill-rule: evenodd;
      }
    </style>
  </defs>
  <path id="Forma_1" data-name="Forma 1" class="cls-1" d="M454.212,783.812a0.778,0.778,0,0,0-1.1-1.1l-4.121,4.107a3.646,3.646,0,0,0,0,5.186,3.678,3.678,0,0,0,5.2,0l9.306-9.274a5.1,5.1,0,0,0,0-7.229,5.147,5.147,0,0,0-7.274,0l-9.288,9.254a6.6,6.6,0,0,0,9.345,9.311l4.121-4.106a0.777,0.777,0,0,0-1.1-1.1l-4.122,4.107a5.041,5.041,0,1,1-7.141-7.116l9.288-9.255a3.539,3.539,0,0,1,2.526-1.041,3.589,3.589,0,0,1,2.526,1.041,3.514,3.514,0,0,1,1.044,2.517,3.559,3.559,0,0,1-1.044,2.517l-9.307,9.274a2.149,2.149,0,0,1-3,0,2.1,2.1,0,0,1,0-2.99Z" transform="translate(-445 -774)"/>
</svg>
