<svg xmlns="http://www.w3.org/2000/svg" width="25" height="25" viewBox="0 0 25 25">
  <metadata><?xpacket begin="﻿" id="W5M0MpCehiHzreSzNTczkc9d"?>
<x:xmpmeta xmlns:x="adobe:ns:meta/" x:xmptk="Adobe XMP Core 5.6-c138 79.159824, 2016/09/14-01:09:01        ">
   <rdf:RDF xmlns:rdf="http://www.w3.org/1999/02/22-rdf-syntax-ns#">
      <rdf:Description rdf:about=""/>
   </rdf:RDF>
</x:xmpmeta>
                                                                                                    
                                                                                                    
                                                                                                    
                                                                                                    
                                                                                                    
                                                                                                    
                                                                                                    
                                                                                                    
                                                                                                    
                                                                                                    
                                                                                                    
                                                                                                    
                                                                                                    
                                                                                                    
                                                                                                    
                                                                                                    
                                                                                                    
                                                                                                    
                                                                                                    
                                                                                                    
                           
<?xpacket end="w"?></metadata>
<defs>
    <style>
      .cls-1 {
        fill: #00407a;
        fill-rule: evenodd;
      }
    </style>
  </defs>
  <path id="Forma_1" data-name="Forma 1" class="cls-1" d="M387.5,2035a12.5,12.5,0,1,0,12.5,12.5A12.515,12.515,0,0,0,387.5,2035Zm0,24.17a11.67,11.67,0,1,1,11.667-11.67A11.685,11.685,0,0,1,387.5,2059.17Zm0.417-13.33v-4.22a0.417,0.417,0,1,0-.834,0v4.22a1.666,1.666,0,0,0-1.191,1.19h-2.975a0.42,0.42,0,0,0,0,.84h2.975A1.664,1.664,0,1,0,387.917,2045.84Zm-0.417,2.44a0.83,0.83,0,1,1,.833-0.83A0.831,0.831,0,0,1,387.5,2048.28Zm0-9.16a0.42,0.42,0,0,0,.417-0.42v-0.42a0.417,0.417,0,0,0-.834,0v0.42A0.42,0.42,0,0,0,387.5,2039.12Zm0,16.66a0.42,0.42,0,0,0-.417.42v0.42a0.417,0.417,0,0,0,.834,0v-0.42A0.42,0.42,0,0,0,387.5,2055.78Zm9.167-8.75H396.25a0.42,0.42,0,0,0,0,.84h0.417A0.42,0.42,0,0,0,396.667,2047.03Zm-17.917,0h-0.417a0.42,0.42,0,0,0,0,.84h0.417A0.42,0.42,0,0,0,378.75,2047.03Zm14.937-6.36-0.3.3a0.417,0.417,0,0,0,.59.59l0.294-.3a0.417,0.417,0,0,0,0-.59A0.421,0.421,0,0,0,393.687,2040.67Zm-12.669,12.67-0.294.3a0.417,0.417,0,0,0,.589.59l0.294-.3a0.417,0.417,0,0,0,0-.59A0.421,0.421,0,0,0,381.018,2053.34Zm12.964,0a0.417,0.417,0,0,0-.59.59l0.3,0.3a0.417,0.417,0,0,0,.589-0.59Zm-12.669-12.67a0.421,0.421,0,0,0-.589,0,0.417,0.417,0,0,0,0,.59l0.294,0.3a0.417,0.417,0,0,0,.589-0.59Z" transform="translate(-375 -2035)"/>
</svg>
