<svg xmlns="http://www.w3.org/2000/svg" width="11" height="13" viewBox="0 0 11 13">
  <metadata><?xpacket begin="﻿" id="W5M0MpCehiHzreSzNTczkc9d"?>
<x:xmpmeta xmlns:x="adobe:ns:meta/" x:xmptk="Adobe XMP Core 5.6-c138 79.159824, 2016/09/14-01:09:01        ">
   <rdf:RDF xmlns:rdf="http://www.w3.org/1999/02/22-rdf-syntax-ns#">
      <rdf:Description rdf:about=""/>
   </rdf:RDF>
</x:xmpmeta>
                                                                                                    
                                                                                                    
                                                                                                    
                                                                                                    
                                                                                                    
                                                                                                    
                                                                                                    
                                                                                                    
                                                                                                    
                                                                                                    
                                                                                                    
                                                                                                    
                                                                                                    
                                                                                                    
                                                                                                    
                                                                                                    
                                                                                                    
                                                                                                    
                                                                                                    
                                                                                                    
                           
<?xpacket end="w"?></metadata>
<defs>
    <style>
      .cls-1 {
        fill: #fff;
        fill-rule: evenodd;
        opacity: 0.5;
      }
    </style>
  </defs>
  <path id="Forma_1" data-name="Forma 1" class="cls-1" d="M1027.83,4310.86a1.975,1.975,0,0,0-.42-0.64l-2.68-2.65a2.008,2.008,0,0,0-.65-0.4,2.061,2.061,0,0,0-.76-0.17h-5.49a0.807,0.807,0,0,0-.59.24,0.763,0.763,0,0,0-.24.57v11.38a0.763,0.763,0,0,0,.24.57,0.807,0.807,0,0,0,.59.24h9.34a0.807,0.807,0,0,0,.59-0.24,0.763,0.763,0,0,0,.24-0.57v-7.59A2.009,2.009,0,0,0,1027.83,4310.86Zm-4.23-2.71a0.924,0.924,0,0,1,.35.19l2.69,2.65a0.868,0.868,0,0,1,.19.34h-3.23v-3.18Zm3.3,10.77h-8.8v-10.84h4.4v3.52a0.785,0.785,0,0,0,.24.58,0.8,0.8,0,0,0,.58.24h3.58v6.5Z" transform="translate(-1017 -4307)"/>
</svg>
