<svg xmlns="http://www.w3.org/2000/svg" width="9.97" height="19.13" viewBox="0 0 9.97 19.13">
  <metadata><?xpacket begin="﻿" id="W5M0MpCehiHzreSzNTczkc9d"?>
<x:xmpmeta xmlns:x="adobe:ns:meta/" x:xmptk="Adobe XMP Core 5.6-c138 79.159824, 2016/09/14-01:09:01        ">
   <rdf:RDF xmlns:rdf="http://www.w3.org/1999/02/22-rdf-syntax-ns#">
      <rdf:Description rdf:about=""/>
   </rdf:RDF>
</x:xmpmeta>
                                                                                                    
                                                                                                    
                                                                                                    
                                                                                                    
                                                                                                    
                                                                                                    
                                                                                                    
                                                                                                    
                                                                                                    
                                                                                                    
                                                                                                    
                                                                                                    
                                                                                                    
                                                                                                    
                                                                                                    
                                                                                                    
                                                                                                    
                                                                                                    
                                                                                                    
                                                                                                    
                           
<?xpacket end="w"?></metadata>
<defs>
    <style>
      .cls-1 {
        fill: #c8c8c8;
        fill-rule: evenodd;
      }
    </style>
  </defs>
  <path id="Forma_1" data-name="Forma 1" class="cls-1" d="M1570.25,4967h-2.39c-2.68,0-4.41,1.85-4.41,4.71v2.17h-2.4a0.382,0.382,0,0,0-.38.39v3.14a0.382,0.382,0,0,0,.38.39h2.4v7.94a0.374,0.374,0,0,0,.37.39h3.14a0.38,0.38,0,0,0,.37-0.39v-7.94h2.81a0.382,0.382,0,0,0,.38-0.39v-3.14a0.411,0.411,0,0,0-.11-0.28,0.386,0.386,0,0,0-.27-0.11h-2.81v-1.84a1.091,1.091,0,0,1,1.31-1.34h1.61a0.382,0.382,0,0,0,.38-0.39v-2.92A0.388,0.388,0,0,0,1570.25,4967Z" transform="translate(-1560.66 -4967)"/>
</svg>
