<svg xmlns="http://www.w3.org/2000/svg" width="50" height="43" viewBox="0 0 50 43">
  <metadata><?xpacket begin="﻿" id="W5M0MpCehiHzreSzNTczkc9d"?>
<x:xmpmeta xmlns:x="adobe:ns:meta/" x:xmptk="Adobe XMP Core 5.6-c138 79.159824, 2016/09/14-01:09:01        ">
   <rdf:RDF xmlns:rdf="http://www.w3.org/1999/02/22-rdf-syntax-ns#">
      <rdf:Description rdf:about=""/>
   </rdf:RDF>
</x:xmpmeta>
                                                                                                    
                                                                                                    
                                                                                                    
                                                                                                    
                                                                                                    
                                                                                                    
                                                                                                    
                                                                                                    
                                                                                                    
                                                                                                    
                                                                                                    
                                                                                                    
                                                                                                    
                                                                                                    
                                                                                                    
                                                                                                    
                                                                                                    
                                                                                                    
                                                                                                    
                                                                                                    
                           
<?xpacket end="w"?></metadata>
<defs>
    <style>
      .cls-1 {
        fill: #fff;
        fill-rule: evenodd;
      }
    </style>
  </defs>
  <path id="Forma_1" data-name="Forma 1" class="cls-1" d="M420.745,1634.46H403.191a0.8,0.8,0,0,0,0,1.6h17.554a2.661,2.661,0,0,1,2.659,2.66v0.93a4.26,4.26,0,0,0-2.659-.93H400.8v-3.46a4.262,4.262,0,0,0-4.256-4.26H379.255a4.262,4.262,0,0,0-4.255,4.26v37.94a0.8,0.8,0,0,0,.8.8h48.4a0.8,0.8,0,0,0,.8-0.8v-34.48A4.262,4.262,0,0,0,420.745,1634.46Zm2.659,37.94H376.6v-37.14a2.661,2.661,0,0,1,2.659-2.66h17.287a2.661,2.661,0,0,1,2.66,2.66v4.26a0.791,0.791,0,0,0,.8.79h20.745a2.669,2.669,0,0,1,2.659,2.67v29.42Zm-12.53-16.72a4,4,0,1,0-3.991-4A4,4,0,0,0,410.874,1655.68Zm0-6.39a2.4,2.4,0,1,1-2.4,2.39A2.394,2.394,0,0,1,410.874,1649.29Zm0,7.99a6.573,6.573,0,0,0-3.106.77,0.8,0.8,0,0,0,.754,1.41,5.053,5.053,0,0,1,2.352-.59,5,5,0,0,1,4.927,4.2h-4.927a0.8,0.8,0,1,0,0,1.59h5.788a0.791,0.791,0,0,0,.8-0.79A6.591,6.591,0,0,0,410.874,1657.28Zm-21.677,5.79h-5a5,5,0,0,1,4.927-4.2,5.053,5.053,0,0,1,2.352.59,0.8,0.8,0,0,0,.753-1.41,6.6,6.6,0,0,0-9.691,5.82,0.791,0.791,0,0,0,.8.79H389.2A0.8,0.8,0,1,0,389.2,1663.07Zm-0.071-7.39a4,4,0,1,0-3.992-4A4,4,0,0,0,389.126,1655.68Zm0-6.39a2.4,2.4,0,1,1-2.4,2.39A2.394,2.394,0,0,1,389.126,1649.29ZM400,1655.97a5.145,5.145,0,1,0-5.139-5.14A5.148,5.148,0,0,0,400,1655.97Zm0-8.69a3.545,3.545,0,1,1-3.543,3.55A3.549,3.549,0,0,1,400,1647.28Zm0,10.28a8.681,8.681,0,0,0-8.666,8.68,0.791,0.791,0,0,0,.8.79h15.736a0.791,0.791,0,0,0,.8-0.79A8.681,8.681,0,0,0,400,1657.56Zm-7.025,7.88a7.069,7.069,0,0,1,14.05,0h-14.05Z" transform="translate(-375 -1631)"/>
</svg>
