<svg xmlns="http://www.w3.org/2000/svg" width="50" height="50" viewBox="0 0 50 50">
  <metadata><?xpacket begin="﻿" id="W5M0MpCehiHzreSzNTczkc9d"?>
<x:xmpmeta xmlns:x="adobe:ns:meta/" x:xmptk="Adobe XMP Core 5.6-c138 79.159824, 2016/09/14-01:09:01        ">
   <rdf:RDF xmlns:rdf="http://www.w3.org/1999/02/22-rdf-syntax-ns#">
      <rdf:Description rdf:about=""/>
   </rdf:RDF>
</x:xmpmeta>
                                                                                                    
                                                                                                    
                                                                                                    
                                                                                                    
                                                                                                    
                                                                                                    
                                                                                                    
                                                                                                    
                                                                                                    
                                                                                                    
                                                                                                    
                                                                                                    
                                                                                                    
                                                                                                    
                                                                                                    
                                                                                                    
                                                                                                    
                                                                                                    
                                                                                                    
                                                                                                    
                           
<?xpacket end="w"?></metadata>
<defs>
    <style>
      .cls-1 {
        fill: #fff;
        fill-rule: evenodd;
      }
    </style>
  </defs>
  <path id="Forma_1" data-name="Forma 1" class="cls-1" d="M613.962,188.521l-4.574-4.574a3.663,3.663,0,0,0-5.106.1c-2.978,3.3-4.154,3.724-4.472,3.837a8.394,8.394,0,0,1-1.6.1c-4.257,0-9.905-3.192-13.834-8.094-3.3-4.041-4.9-8.411-4.257-11.705,0.1-.215.532-1.494,3.837-4.472a3.383,3.383,0,0,0,1.167-2.558,3.75,3.75,0,0,0-1.064-2.558l-4.574-4.574a3.561,3.561,0,0,0-4.472-.43C570.433,156.9,565,161.375,565,164.567,565,178.2,589.8,203,603.433,203c3.305,0,7.766-5.433,10.969-10.007A3.551,3.551,0,0,0,613.962,188.521Zm-1.167,3.408c-3.939,5.535-7.562,9.045-9.26,9.045-12.565,0-36.407-23.841-36.407-36.407,0-1.811,3.408-5.32,9.046-9.26a1.337,1.337,0,0,1,1.811.317l4.574,4.574a1.575,1.575,0,0,1-.1,2.128c-3.622,3.306-4.256,4.789-4.471,5.638-0.747,3.94.962,8.831,4.686,13.415,4.369,5.321,10.437,8.831,15.431,8.831a11.349,11.349,0,0,0,2.026-.215c0.849-.215,2.343-0.85,5.638-4.472a1.517,1.517,0,0,1,2.128-.1l4.686,4.686A1.342,1.342,0,0,1,612.795,191.929Zm-7.132-29.06a15.1,15.1,0,0,1,4.155,13.3l2.026,0.317a17.455,17.455,0,0,0-4.687-15.113A17.1,17.1,0,0,0,591.3,156.8l0.43,2.026A14.815,14.815,0,0,1,605.663,162.869Zm-1.6,12.565a9.708,9.708,0,0,0-2.66-8.513,9.521,9.521,0,0,0-8.943-2.558l0.429,2.026a7.719,7.719,0,0,1,7.03,2.026,7.516,7.516,0,0,1,2.128,6.7Z" transform="translate(-565 -153)"/>
</svg>
