<svg xmlns="http://www.w3.org/2000/svg" width="50" height="60" viewBox="0 0 50 60">
  <metadata><?xpacket begin="﻿" id="W5M0MpCehiHzreSzNTczkc9d"?>
<x:xmpmeta xmlns:x="adobe:ns:meta/" x:xmptk="Adobe XMP Core 5.6-c138 79.159824, 2016/09/14-01:09:01        ">
   <rdf:RDF xmlns:rdf="http://www.w3.org/1999/02/22-rdf-syntax-ns#">
      <rdf:Description rdf:about=""/>
   </rdf:RDF>
</x:xmpmeta>
                                                                                                    
                                                                                                    
                                                                                                    
                                                                                                    
                                                                                                    
                                                                                                    
                                                                                                    
                                                                                                    
                                                                                                    
                                                                                                    
                                                                                                    
                                                                                                    
                                                                                                    
                                                                                                    
                                                                                                    
                                                                                                    
                                                                                                    
                                                                                                    
                                                                                                    
                                                                                                    
                           
<?xpacket end="w"?></metadata>
<defs>
    <style>
      .cls-1 {
        fill: #fff;
        fill-rule: evenodd;
      }
    </style>
  </defs>
  <path class="cls-1" d="M1134.72,3909.3l-10.02-10.03a0.975,0.975,0,0,0-.66-0.27h-30.08a2.953,2.953,0,0,0-2.95,2.94v34.14h-3.07a2.945,2.945,0,0,0-2.94,2.94v10.02a2.945,2.945,0,0,0,2.94,2.94h3.07v4.08a2.953,2.953,0,0,0,2.95,2.94h38.1a2.945,2.945,0,0,0,2.94-2.94v-46.1A0.907,0.907,0,0,0,1134.72,3909.3Zm-9.75-7.09,6.82,6.81h-5.75a1.069,1.069,0,0,1-1.07-1.06v-5.75h0Zm-37.03,47.9a1.069,1.069,0,0,1-1.06-1.07v-10.02a1.061,1.061,0,0,1,1.06-1.06h27.07a1.063,1.063,0,0,1,1.07,1.06v10.02a1.071,1.071,0,0,1-1.07,1.07h-27.07Zm45.18,5.95a1.067,1.067,0,0,1-1.06,1.06h-38.1a1.069,1.069,0,0,1-1.07-1.06v-4.07h22.12a2.955,2.955,0,0,0,2.95-2.95v-10.02a2.947,2.947,0,0,0-2.95-2.94h-22.12v-34.14a1.069,1.069,0,0,1,1.07-1.06h29.14v7.08a2.945,2.945,0,0,0,2.94,2.94h7.08v45.16h0Zm-39.16-15.97h-4.01a0.937,0.937,0,0,0-.94.93v6.02a0.94,0.94,0,0,0,1.88,0v-1.07h3.07A2.94,2.94,0,1,0,1093.96,3940.09Zm0,4h-3.07v-2.13h3.07A1.065,1.065,0,0,1,1093.96,3944.09Zm8.02-4h-3.01a0.937,0.937,0,0,0-.94.93v6.02a0.939,0.939,0,0,0,.94.94h3.01A3.945,3.945,0,1,0,1101.98,3940.09Zm0,6.01h-2.07v-4.14h2.07A2.07,2.07,0,0,1,1101.98,3946.1Zm11.03-6.01h-5.02a0.943,0.943,0,0,0-.94.93v6.02a0.94,0.94,0,1,0,1.88,0v-2.07H1111a0.94,0.94,0,1,0,0-1.88h-2.07v-1.13h4.08A0.935,0.935,0,1,0,1113.01,3940.09Zm0-30.07a10.96,10.96,0,1,0,10.96,10.96A10.979,10.979,0,0,0,1113.01,3910.02Zm0,20.04a9.08,9.08,0,1,1,9.08-9.08A9.095,9.095,0,0,1,1113.01,3930.06Zm0.01-15.03h-0.01A0.945,0.945,0,1,0,1113.02,3915.03Zm0.99,10.02h-0.06v-5.13h0.06a0.94,0.94,0,0,0,0-1.88h-2a0.94,0.94,0,1,0,0,1.88h0.06v5.13h-0.06a0.94,0.94,0,0,0,0,1.88h2A0.94,0.94,0,0,0,1114.01,3925.05Z" transform="translate(-1085 -3899)"/>
</svg>
