<svg version="1.1" id="Capa_1" xmlns="http://www.w3.org/2000/svg" xmlns:xlink="http://www.w3.org/1999/xlink" x="0px" y="0px"
	 viewBox="0 0 15.663 15.663" style="enable-background:new 0 0 15.663 15.663;" xml:space="preserve">
	<g>
		<path style="fill:#030104;" d="M7.832,0.883C3.513,0.883,0,3.432,0,6.564c0,2.076,1.526,3.956,4.002,4.957
			c-0.045,0.411-0.322,1.177-1.513,2.259c-0.198,0.181-0.246,0.469-0.118,0.701c0.101,0.185,0.294,0.298,0.504,0.298
			c0.051,0,0.102-0.007,0.151-0.021c0.142-0.037,3.441-0.949,5.514-2.542c4.004-0.26,7.123-2.726,7.123-5.652
			C15.663,3.432,12.15,0.883,7.832,0.883z M8.377,11.451l-0.124,0.006l-0.096,0.078c-1.39,1.103-3.452,1.877-4.562,2.241
			c1.059-1.145,1.237-2.011,1.179-2.562L4.75,10.977l-0.226-0.084c-2.313-0.858-3.75-2.517-3.75-4.329
			c0-2.706,3.166-4.907,7.058-4.907c3.891,0,7.057,2.201,7.057,4.907C14.889,9.109,12.028,11.254,8.377,11.451z"/>
	</g>
</svg>
