<svg xmlns="http://www.w3.org/2000/svg" width="60.3" height="60.3" viewBox="0 0 60.3 60.3">
  <metadata><?xpacket begin="﻿" id="W5M0MpCehiHzreSzNTczkc9d"?>
<x:xmpmeta xmlns:x="adobe:ns:meta/" x:xmptk="Adobe XMP Core 5.6-c138 79.159824, 2016/09/14-01:09:01        ">
   <rdf:RDF xmlns:rdf="http://www.w3.org/1999/02/22-rdf-syntax-ns#">
      <rdf:Description rdf:about=""/>
   </rdf:RDF>
</x:xmpmeta>
                                                                                                    
                                                                                                    
                                                                                                    
                                                                                                    
                                                                                                    
                                                                                                    
                                                                                                    
                                                                                                    
                                                                                                    
                                                                                                    
                                                                                                    
                                                                                                    
                                                                                                    
                                                                                                    
                                                                                                    
                                                                                                    
                                                                                                    
                                                                                                    
                                                                                                    
                                                                                                    
                           
<?xpacket end="w"?></metadata>
<defs>
    <style>
      .cls-1 {
        fill: #fff;
        stroke: #00407a;
        stroke-width: 0.3px;
        fill-rule: evenodd;
      }
    </style>
  </defs>
  <path class="cls-1" d="M1691.56,1717a19.416,19.416,0,0,0-19.44,19.35,19.207,19.207,0,0,0,4.96,12.89l-3.86,3.84-1.77-1.76a1.2,1.2,0,0,0-1.7,0l-17.29,17.21a4.975,4.975,0,0,0,7.05,7.02l17.29-17.22a1.189,1.189,0,0,0,0-1.69l-1.88-1.87,3.87-3.85A19.385,19.385,0,1,0,1691.56,1717Zm-33.75,56.86a2.6,2.6,0,0,1-3.65,0,2.559,2.559,0,0,1,0-3.64l16.44-16.37,3.65,3.64Zm33.75-20.55a16.96,16.96,0,1,1,17.04-16.96A17.016,17.016,0,0,1,1691.56,1753.31Zm4.45-30.1a4.19,4.19,0,0,0-3.04-1.31h-2.72a4.19,4.19,0,0,0-3.04,1.31,4.125,4.125,0,0,0-1.11,3.1l0.12,1.85,0.28,4.32a5.073,5.073,0,0,0,2.64,4.14,5.157,5.157,0,0,0,4.94,0,5.073,5.073,0,0,0,2.64-4.14l0.33-4.93,0.08-1.24A4.133,4.133,0,0,0,1696.01,1723.21Zm-7.52,2.95a1.745,1.745,0,0,1,.47-1.31,1.764,1.764,0,0,1,1.29-.56h1.85l-0.33.86a4.789,4.789,0,0,1-3.24,1.61Zm5.84,6.17a2.722,2.722,0,0,1-5.43,0l-0.21-3.17a8.565,8.565,0,0,0,4-1.56,3.984,3.984,0,0,0,.46.27,8.806,8.806,0,0,0,1.43.52Zm-0.08-6.58a1.054,1.054,0,0,1-.11-0.07l0.25-.67a1.729,1.729,0,0,1,.34.93A4.533,4.533,0,0,1,1694.25,1725.75Zm9.34,18.41a7.7,7.7,0,0,0-6.12-6.14,8.332,8.332,0,0,0-1.42-.13h-1.36a1.23,1.23,0,0,0-.85.35l-2.23,2.22-2.23-2.22a1.23,1.23,0,0,0-.85-0.35h-1.36a8.426,8.426,0,0,0-1.42.13,7.685,7.685,0,0,0-6.12,6.14,3.255,3.255,0,0,0,.72,2.71,3.314,3.314,0,0,0,2.54,1.18h17.44a3.335,3.335,0,0,0,2.55-1.18A3.283,3.283,0,0,0,1703.59,1744.16Zm-2.56,1.17a0.876,0.876,0,0,1-.7.33h-17.44a0.918,0.918,0,0,1-.9-1.07,5.254,5.254,0,0,1,5.18-4.31h0.86l2.73,2.72a1.207,1.207,0,0,0,1.7,0l2.73-2.72h0.86a5.254,5.254,0,0,1,5.18,4.31A0.849,0.849,0,0,1,1701.03,1745.33Zm-29.51,10.81a1.189,1.189,0,0,0-1.69,0l-5.23,5.2a1.189,1.189,0,0,0,0,1.69,1.221,1.221,0,0,0,.85.35,1.2,1.2,0,0,0,.85-0.35l5.22-5.2A1.189,1.189,0,0,0,1671.52,1756.14Zm-7.8,7.73a1.2,1.2,0,0,0-1.7,0l-0.58.57a1.2,1.2,0,0,0,.85,2.04,1.163,1.163,0,0,0,.85-0.35l0.58-.57A1.189,1.189,0,0,0,1663.72,1763.87Z" transform="translate(-1650.85 -1716.85)"/>
</svg>
