<svg xmlns="http://www.w3.org/2000/svg" width="42" height="50" viewBox="0 0 42 50">
  <metadata><?xpacket begin="﻿" id="W5M0MpCehiHzreSzNTczkc9d"?>
<x:xmpmeta xmlns:x="adobe:ns:meta/" x:xmptk="Adobe XMP Core 5.6-c138 79.159824, 2016/09/14-01:09:01        ">
   <rdf:RDF xmlns:rdf="http://www.w3.org/1999/02/22-rdf-syntax-ns#">
      <rdf:Description rdf:about=""/>
   </rdf:RDF>
</x:xmpmeta>
                                                                                                    
                                                                                                    
                                                                                                    
                                                                                                    
                                                                                                    
                                                                                                    
                                                                                                    
                                                                                                    
                                                                                                    
                                                                                                    
                                                                                                    
                                                                                                    
                                                                                                    
                                                                                                    
                                                                                                    
                                                                                                    
                                                                                                    
                                                                                                    
                                                                                                    
                                                                                                    
                           
<?xpacket end="w"?></metadata>
<defs>
    <style>
      .cls-1 {
        fill: #fff;
        fill-rule: evenodd;
      }
    </style>
  </defs>
  <path class="cls-1" d="M978.48,768H959.16a2.513,2.513,0,0,0-2.52,2.5v5.834H943.2A4.188,4.188,0,0,0,939,780.5v33.332A4.189,4.189,0,0,0,943.2,818h35.28a2.514,2.514,0,0,0,2.52-2.5v-45A2.514,2.514,0,0,0,978.48,768Zm-12.6,35.834v12.5H943.2a2.514,2.514,0,0,1-2.52-2.5V780.5a2.514,2.514,0,0,1,2.52-2.5h22.68v25.834Zm0.84-27.5h-8.4V770.5a0.838,0.838,0,0,1,.84-0.833h15.12V803h-6.72V777.166A0.836,0.836,0,0,0,966.72,776.333Zm12.6,39.166a0.838,0.838,0,0,1-.84.834H967.56V804.666h11.76V815.5Zm0-12.5h-3.36V769.666h2.52a0.838,0.838,0,0,1,.84.833V803Zm-25.847-20.705-0.029,0-0.057,0a9.145,9.145,0,1,0,0,18.29l0.057,0c0.01,0,.019,0,0.029,0,0.032,0,.062-0.008.093-0.01a9.136,9.136,0,0,0,0-18.271C953.535,782.3,953.505,782.294,953.473,782.294Zm-7.625,9.145a7.4,7.4,0,0,1,.223-1.773h3.022c-0.05.571-.079,1.162-0.079,1.773,0,0.535.026,1.054,0.064,1.561h-3.062A7.45,7.45,0,0,1,945.848,791.439Zm0.749,3.227h2.688a11.809,11.809,0,0,0,1.208,3.676A7.548,7.548,0,0,1,946.6,794.666ZM949.321,788H946.7a7.561,7.561,0,0,1,3.793-3.464A11.6,11.6,0,0,0,949.321,788Zm4.2,10.911c-0.022,0-.044,0-0.067,0-0.855-.025-1.948-1.58-2.463-4.247h4.972C955.449,797.309,954.369,798.858,953.517,798.91Zm7.407-7.471a7.45,7.45,0,0,1-.168,1.561h-2.889c0.04-.507.064-1.026,0.064-1.561,0-.611-0.029-1.2-0.079-1.773H960.7A7.354,7.354,0,0,1,960.924,791.439ZM960.072,788h-2.448a11.763,11.763,0,0,0-1.114-3.358A7.554,7.554,0,0,1,960.072,788Zm-2.411,6.667h2.514a7.547,7.547,0,0,1-3.665,3.57A12,12,0,0,0,957.661,794.666Zm-1.41-3.227c0,0.546-.024,1.066-0.066,1.561H950.76c-0.042-.5-0.066-1.015-0.066-1.561,0-.625.031-1.215,0.085-1.773h5.386C956.219,790.224,956.251,790.814,956.251,791.439ZM955.914,788h-4.882c0.53-2.534,1.586-4.01,2.418-4.035l0.067,0C954.346,784.017,955.388,785.486,955.914,788Zm-9.354,21.667h3.36a0.833,0.833,0,1,0,0-1.666h-3.36A0.833,0.833,0,1,0,946.56,809.666ZM960,808h-6.72a0.833,0.833,0,1,0,0,1.666H960A0.833,0.833,0,1,0,960,808Zm0,3.332h-3.36a0.834,0.834,0,1,0,0,1.667H960A0.834,0.834,0,1,0,960,811.332Zm-6.72,0h-6.72a0.834,0.834,0,1,0,0,1.667h6.72A0.834,0.834,0,1,0,953.28,811.332Zm21-4.166v6.666a0.84,0.84,0,0,0,1.68,0v-6.666A0.84,0.84,0,0,0,974.28,807.166Zm-2.52-.833a0.836,0.836,0,0,0-.84.833v4.166a0.84,0.84,0,0,0,1.68,0v-4.166A0.836,0.836,0,0,0,971.76,806.333Zm-0.84-16.667a0.836,0.836,0,0,0,.84-0.833V772.166a0.84,0.84,0,0,0-1.68,0v16.667A0.836,0.836,0,0,0,970.92,789.666Zm0,11.667a0.837,0.837,0,0,0,.84-0.834v-6.666a0.84,0.84,0,0,0-1.68,0V800.5A0.837,0.837,0,0,0,970.92,801.333Z" transform="translate(-939 -768)"/>
</svg>
