<svg xmlns="http://www.w3.org/2000/svg" width="32" height="41" viewBox="0 0 32 41">
  <metadata><?xpacket begin="﻿" id="W5M0MpCehiHzreSzNTczkc9d"?>
<x:xmpmeta xmlns:x="adobe:ns:meta/" x:xmptk="Adobe XMP Core 5.6-c138 79.159824, 2016/09/14-01:09:01        ">
   <rdf:RDF xmlns:rdf="http://www.w3.org/1999/02/22-rdf-syntax-ns#">
      <rdf:Description rdf:about=""/>
   </rdf:RDF>
</x:xmpmeta>
                                                                                                    
                                                                                                    
                                                                                                    
                                                                                                    
                                                                                                    
                                                                                                    
                                                                                                    
                                                                                                    
                                                                                                    
                                                                                                    
                                                                                                    
                                                                                                    
                                                                                                    
                                                                                                    
                                                                                                    
                                                                                                    
                                                                                                    
                                                                                                    
                                                                                                    
                                                                                                    
                           
<?xpacket end="w"?></metadata>
<defs>
    <style>
      .cls-1 {
        fill: #00407a;
        fill-rule: evenodd;
      }
    </style>
  </defs>
  <path id="Forma_1" data-name="Forma 1" class="cls-1" d="M1011.83,2657.57h-6.44a3.148,3.148,0,0,0-2.54-1.29h-1.66a2.514,2.514,0,0,0-4.381,0H995.15a3.167,3.167,0,0,0-2.545,1.29h-6.437a3.171,3.171,0,0,0-3.168,3.17v32.09a3.171,3.171,0,0,0,3.168,3.17h25.662a3.171,3.171,0,0,0,3.17-3.17v-32.09A3.171,3.171,0,0,0,1011.83,2657.57Zm-18.644,1.88a1.965,1.965,0,0,1,1.964-1.96h2.043a0.6,0.6,0,0,0,.567-0.4,1.309,1.309,0,0,1,2.48,0,0.6,0.6,0,0,0,.57.4h2.04a1.963,1.963,0,0,1,1.96,1.96v1.97H993.186v-1.97Zm20.614,33.38a1.974,1.974,0,0,1-1.97,1.97H986.168a1.974,1.974,0,0,1-1.965-1.97v-32.09a1.968,1.968,0,0,1,1.965-1.97h5.889a3.2,3.2,0,0,0-.074.68v2.57a0.6,0.6,0,0,0,.6.6h12.836a0.6,0.6,0,0,0,.6-0.6v-2.57a3.084,3.084,0,0,0-.08-0.68h5.89a1.967,1.967,0,0,1,1.97,1.97v32.09Zm-1.97-32.7h-3.85a0.605,0.605,0,0,0,0,1.21h3.25v22.54h-6.46a1.893,1.893,0,0,0-1.88,1.89v3.85a0.6,0.6,0,1,0,1.2,0v-3.85a0.681,0.681,0,0,1,.68-0.68h5.61l-7.14,7.14H986.77v-30.89h3.248a0.605,0.605,0,0,0,0-1.21h-3.85a0.6,0.6,0,0,0-.6.61v32.09a0.6,0.6,0,0,0,.6.6h17.412a0.037,0.037,0,0,1,.03-0.01,0.037,0.037,0,0,0,.03-0.01h0.03a0.037,0.037,0,0,1,.03-0.01c0-.01.01-0.01,0.02-0.01s0.02-.01.03-0.02,0.02,0,.02-0.01a0.053,0.053,0,0,0,.03-0.02c0.01,0,.02,0,0.02-0.01a0.142,0.142,0,0,1,.04-0.02,0.01,0.01,0,0,1,.01-0.01l0.05-.05,8.34-8.34h0c0.02-.02.03-0.04,0.05-0.06a0.035,0.035,0,0,0,.01-0.02,0.209,0.209,0,0,0,.04-0.06,0.01,0.01,0,0,1,.01-0.01,0.142,0.142,0,0,0,.02-0.06,0.02,0.02,0,0,0,.01-0.02,0.188,0.188,0,0,0,.02-0.08h0a0.17,0.17,0,0,0,.01-0.07v-23.79A0.6,0.6,0,0,0,1011.83,2660.13ZM999,2657.57a0.606,0.606,0,0,0-.425.17,0.629,0.629,0,0,0-.177.43,0.588,0.588,0,0,0,.177.42,0.592,0.592,0,0,0,.85,0,0.587,0.587,0,0,0,.176-0.42,0.628,0.628,0,0,0-.176-0.43A0.606,0.606,0,0,0,999,2657.57Zm2.57,9.54h6.41a0.6,0.6,0,0,0,.6-0.6,0.6,0.6,0,0,0-.6-0.6h-6.41a0.6,0.6,0,0,0-.61.6A0.6,0.6,0,0,0,1001.57,2667.11Zm-1.928,2.57h8.338a0.6,0.6,0,1,0,0-1.2h-8.338A0.6,0.6,0,1,0,999.642,2669.68Zm8.338,1.37h-6.41a0.6,0.6,0,1,0,0,1.2h6.41A0.6,0.6,0,1,0,1007.98,2671.05Zm0,2.56H990.018a0.605,0.605,0,0,0,0,1.21h17.962A0.605,0.605,0,0,0,1007.98,2673.61Zm0,2.57H990.018a0.6,0.6,0,0,0-.6.6,0.6,0.6,0,0,0,.6.6h17.962a0.6,0.6,0,0,0,.6-0.6A0.6,0.6,0,0,0,1007.98,2676.18Zm0,2.57H990.018a0.6,0.6,0,1,0,0,1.2h17.962A0.6,0.6,0,1,0,1007.98,2678.75Zm0.6,3.17a0.6,0.6,0,0,0-.6-0.6H990.018a0.6,0.6,0,1,0,0,1.2h17.962A0.6,0.6,0,0,0,1008.58,2681.92Zm-7.66,1.96h-5.128a0.605,0.605,0,0,0,0,1.21h5.128A0.605,0.605,0,1,0,1000.92,2683.88Zm0,2.57h-2.562a0.605,0.605,0,0,0,0,1.21h2.562A0.605,0.605,0,1,0,1000.92,2686.45Zm-11.5-18.01a0.6,0.6,0,0,0,.6.6h2.606v2.61a0.6,0.6,0,0,0,1.2,0v-2.61h2.607a0.6,0.6,0,1,0,0-1.2h-2.607v-2.61a0.6,0.6,0,0,0-1.2,0v2.61h-2.606A0.6,0.6,0,0,0,989.416,2668.44Z" transform="translate(-983 -2655)"/>
</svg>
