<svg xmlns="http://www.w3.org/2000/svg" width="48" height="52" viewBox="0 0 48 52">
  <metadata><?xpacket begin="﻿" id="W5M0MpCehiHzreSzNTczkc9d"?>
<x:xmpmeta xmlns:x="adobe:ns:meta/" x:xmptk="Adobe XMP Core 5.6-c138 79.159824, 2016/09/14-01:09:01        ">
   <rdf:RDF xmlns:rdf="http://www.w3.org/1999/02/22-rdf-syntax-ns#">
      <rdf:Description rdf:about=""/>
   </rdf:RDF>
</x:xmpmeta>
                                                                                                    
                                                                                                    
                                                                                                    
                                                                                                    
                                                                                                    
                                                                                                    
                                                                                                    
                                                                                                    
                                                                                                    
                                                                                                    
                                                                                                    
                                                                                                    
                                                                                                    
                                                                                                    
                                                                                                    
                                                                                                    
                                                                                                    
                                                                                                    
                                                                                                    
                                                                                                    
                           
<?xpacket end="w"?></metadata>
<defs>
    <style>
      .cls-1 {
        fill: #fff;
        fill-rule: evenodd;
      }
    </style>
  </defs>
  <path class="cls-1" d="M732,1753.07a0.864,0.864,0,0,0-.857-0.87H726a0.865,0.865,0,0,0,0,1.73h5.142A0.862,0.862,0,0,0,732,1753.07Zm-3.428-22.54v-4.33a0.857,0.857,0,1,0-1.714,0v4.33a4.319,4.319,0,0,0,4.285,4.34h7.713v16.46a0.857,0.857,0,1,0,1.714,0V1734a0.864,0.864,0,0,0-.857-0.87h-8.57A2.584,2.584,0,0,1,728.568,1730.53Zm2.571,11.27h-6.857a0.865,0.865,0,0,0,0,1.73h6.857A0.865,0.865,0,0,0,731.139,1741.8Zm-9.428.87a0.864,0.864,0,0,0-.857-0.87h-5.142a0.865,0.865,0,0,0,0,1.73h5.142A0.862,0.862,0,0,0,721.711,1742.67Zm-6,4.33a0.865,0.865,0,0,0,0,1.73h1.714a0.865,0.865,0,0,0,0-1.73h-1.714Zm0-8.67h8.57a0.865,0.865,0,0,0,0-1.73h-8.57A0.865,0.865,0,0,0,715.712,1738.33Zm5.142,10.4h8.571a0.865,0.865,0,0,0,0-1.73h-8.571A0.865,0.865,0,0,0,720.854,1748.73ZM726,1757.4a0.865,0.865,0,0,0,0,1.73h1.714a0.865,0.865,0,0,0,0-1.73H726Zm-3.429-5.2h-6.856a0.865,0.865,0,0,0,0,1.73h6.856A0.865,0.865,0,0,0,722.568,1752.2Zm0,5.2h-6.856a0.865,0.865,0,0,0,0,1.73h6.856A0.865,0.865,0,0,0,722.568,1757.4Zm20.406-.7-1.714-1.73a3.188,3.188,0,0,0-4.64,0l-11.229,11.35a0.859,0.859,0,0,0-.251.61v5.2a0.863,0.863,0,0,0,.857.87h5.142a0.858,0.858,0,0,0,.606-0.25l11.229-11.36A3.2,3.2,0,0,0,742.974,1756.7Zm-7.462,1.84,1.359,1.37-7.446,7.53-1.36-1.37Zm-8.658,12.73v-3.98l3.93,3.98h-3.93Zm5.142-1.23-1.359-1.37,7.446-7.53,1.359,1.37Zm9.766-9.87-1.108,1.12-3.931-3.98,1.109-1.12a1.452,1.452,0,0,1,2.216,0l1.714,1.73A1.477,1.477,0,0,1,741.762,1760.17Zm-19.194,11.1H700.285a2.591,2.591,0,0,1-2.571-2.6v-43.34a2.591,2.591,0,0,1,2.571-2.6h27.071l8.319,8.42a0.866,0.866,0,0,0,1.212,0,0.878,0.878,0,0,0,0-1.23l-8.57-8.67a0.86,0.86,0,0,0-.606-0.25H700.285a4.311,4.311,0,0,0-4.285,4.33v43.34a4.311,4.311,0,0,0,4.285,4.33h22.284A0.865,0.865,0,0,0,722.568,1771.27Zm0-8.67h-6.856a0.865,0.865,0,0,0,0,1.73h6.856A0.865,0.865,0,0,0,722.568,1762.6Zm-11.141-25.13a0.864,0.864,0,0,0-.857-0.87h-5.143a0.863,0.863,0,0,0-.856.87v5.2a0.861,0.861,0,0,0,.856.86h5.143a0.862,0.862,0,0,0,.857-0.86v-5.2Zm-1.714,4.33h-3.429v-3.47h3.429v3.47Zm-4.286,22.53h5.143a0.862,0.862,0,0,0,.857-0.86v-5.2a0.864,0.864,0,0,0-.857-0.87h-5.143a0.864,0.864,0,0,0-.857.87v5.2A0.862,0.862,0,0,0,705.427,1764.33Zm0.857-5.2h3.429v3.47h-3.429v-3.47Zm0.252-5.45a0.86,0.86,0,0,0,.606.25h0.084a0.887,0.887,0,0,0,.629-0.38l3.428-5.2a0.87,0.87,0,0,0-.238-1.2,0.845,0.845,0,0,0-1.188.24l-2.848,4.32-0.976-.99a0.848,0.848,0,0,0-1.212,0,0.878,0.878,0,0,0,0,1.23Z" transform="translate(-696 -1721)"/>
</svg>
