<svg xmlns="http://www.w3.org/2000/svg" width="38" height="36" viewBox="0 0 38 36">
  <metadata><?xpacket begin="﻿" id="W5M0MpCehiHzreSzNTczkc9d"?>
<x:xmpmeta xmlns:x="adobe:ns:meta/" x:xmptk="Adobe XMP Core 5.6-c138 79.159824, 2016/09/14-01:09:01        ">
   <rdf:RDF xmlns:rdf="http://www.w3.org/1999/02/22-rdf-syntax-ns#">
      <rdf:Description rdf:about=""/>
   </rdf:RDF>
</x:xmpmeta>
                                                                                                    
                                                                                                    
                                                                                                    
                                                                                                    
                                                                                                    
                                                                                                    
                                                                                                    
                                                                                                    
                                                                                                    
                                                                                                    
                                                                                                    
                                                                                                    
                                                                                                    
                                                                                                    
                                                                                                    
                                                                                                    
                                                                                                    
                                                                                                    
                                                                                                    
                                                                                                    
                           
<?xpacket end="w"?></metadata>
<defs>
    <style>
      .cls-1 {
        fill: #00407a;
        fill-rule: evenodd;
      }
    </style>
  </defs>
  <path class="cls-1" d="M999,2547.12a0.8,0.8,0,0,0-.809.79v1.19a0.809,0.809,0,0,0,1.618,0v-1.19A0.8,0.8,0,0,0,999,2547.12Zm18.72-24.36a0.758,0.758,0,0,0-.65-0.2l-1.94.24v-3.01a0.664,0.664,0,0,0-.36-0.63,0.691,0.691,0,0,0-.73-0.08l-13.22,4.75a5.834,5.834,0,0,1-1.82.32,5.615,5.615,0,0,1-1.819-.32l-13.26-4.79a0.915,0.915,0,0,0-.727.08,0.857,0.857,0,0,0-.364.63v3.01l-1.941-.2a0.789,0.789,0,0,0-.646.2,0.809,0.809,0,0,0-.243.6v28.91a0.819,0.819,0,0,0,.728.79l17.544,1.9a4.444,4.444,0,0,0,.728.04,5.211,5.211,0,0,0,.768-0.04l17.5-1.9a0.817,0.817,0,0,0,.73-0.79v-28.91A0.72,0.72,0,0,0,1017.72,2522.76Zm-36.1,28.79v-27.32l1.213,0.12v24.35a0.8,0.8,0,0,0,.525.75l9.1,3.29Zm15.523,1.19-12.693-4.59v-27.21l12.168,4.4a8.109,8.109,0,0,0,1.576.35v18.66a0.809,0.809,0,0,0,1.618,0v-18.66a8.306,8.306,0,0,0,1.581-.35l12.16-4.4v27.21l-12.73,4.59A5.793,5.793,0,0,1,997.14,2552.74Zm19.24-1.19-10.83,1.19,9.09-3.29a0.757,0.757,0,0,0,.53-0.75v-24.31l1.21-.12v27.28Z" transform="translate(-980 -2519)"/>
</svg>
