<svg xmlns="http://www.w3.org/2000/svg" width="47.269" height="40.3" viewBox="0 0 47.269 40.3">
  <metadata><?xpacket begin="﻿" id="W5M0MpCehiHzreSzNTczkc9d"?>
<x:xmpmeta xmlns:x="adobe:ns:meta/" x:xmptk="Adobe XMP Core 5.6-c138 79.159824, 2016/09/14-01:09:01        ">
   <rdf:RDF xmlns:rdf="http://www.w3.org/1999/02/22-rdf-syntax-ns#">
      <rdf:Description rdf:about=""/>
   </rdf:RDF>
</x:xmpmeta>
                                                                                                    
                                                                                                    
                                                                                                    
                                                                                                    
                                                                                                    
                                                                                                    
                                                                                                    
                                                                                                    
                                                                                                    
                                                                                                    
                                                                                                    
                                                                                                    
                                                                                                    
                                                                                                    
                                                                                                    
                                                                                                    
                                                                                                    
                                                                                                    
                                                                                                    
                                                                                                    
                           
<?xpacket end="w"?></metadata>
<defs>
    <style>
      .cls-1 {
        fill: #00407a;
        stroke: #fff;
        stroke-width: 0.3px;
        fill-rule: evenodd;
      }
    </style>
  </defs>
  <path id="Forma_1" data-name="Forma 1" class="cls-1" d="M1021.06,2801.31l-9.57-9.39a3.248,3.248,0,0,0-4.53,0l-2.25,2.21a3.17,3.17,0,0,0-.75,1.16l-10.516-1.85h0a8.778,8.778,0,0,0-10.3,6.74l-0.485,2.36a4.842,4.842,0,0,0,3.849,5.69,4.926,4.926,0,0,0,5.792-3.78l0.3-1.44,4.718,0.4,12.321,12.09,2.23,2.19a1.129,1.129,0,0,1,0,1.61,1.165,1.165,0,0,1-1.64,0l-5.98-5.87a1.081,1.081,0,0,0-1.51,0,1.044,1.044,0,0,0,0,1.48l5.98,5.87a1.127,1.127,0,0,1,.34.81,1.1,1.1,0,0,1-.34.8,1.165,1.165,0,0,1-1.64,0l-5.98-5.87a1.077,1.077,0,0,0-1.507,0,1.034,1.034,0,0,0,0,1.48l5.977,5.87a1.112,1.112,0,0,1,0,1.61,1.133,1.133,0,0,1-.82.34,1.15,1.15,0,0,1-.82-0.34l-5.977-5.87a1.078,1.078,0,0,0-1.508,0,1.032,1.032,0,0,0,0,1.48l5.985,5.87a1.129,1.129,0,0,1,0,1.61,1.165,1.165,0,0,1-1.64,0l-21.166-20.77-2.8-2.74a1.078,1.078,0,0,0-1.508,0,1.032,1.032,0,0,0,0,1.48l2.794,2.74,3.042,2.99-1.677,1.64a2.823,2.823,0,0,0,0,4.04l0.547,0.54a2.942,2.942,0,0,0,1.765.82,2.814,2.814,0,0,0,.837,1.73l0.547,0.54a2.975,2.975,0,0,0,1.764.82,2.809,2.809,0,0,0,.837,1.73l0.547,0.54a2.942,2.942,0,0,0,1.765.82,2.814,2.814,0,0,0,.837,1.73l0.547,0.54a2.959,2.959,0,0,0,4.11,0l1.677-1.65,4.017,3.94a3.318,3.318,0,0,0,2.333.95,3.284,3.284,0,0,0,2.32-.95,3.148,3.148,0,0,0,.96-2.15,3.268,3.268,0,0,0,2.19-.94,3.157,3.157,0,0,0,.96-2.15,3.274,3.274,0,0,0,2.19-.94,3.157,3.157,0,0,0,.96-2.15,3.274,3.274,0,0,0,2.19-.94,3.2,3.2,0,0,0,0-4.57l-1.48-1.45,5.41-5.31,3.76-3.69A3.109,3.109,0,0,0,1021.06,2801.31Zm-40.081,15.16a0.745,0.745,0,0,1,0-1.07l1.572-1.55,1.64,1.61-1.572,1.54a0.776,0.776,0,0,1-1.093,0Zm3.148,3.09a0.747,0.747,0,0,1,0-1.07l1.572-1.55,1.64,1.61-1.571,1.55a0.8,0.8,0,0,1-1.093,0Zm3.149,3.09a0.772,0.772,0,0,1-.227-0.54,0.732,0.732,0,0,1,.227-0.53l1.572-1.55,1.64,1.61-1.572,1.55a0.8,0.8,0,0,1-1.093,0Zm4.788,3.63a0.8,0.8,0,0,1-1.093,0l-0.547-.54a0.747,0.747,0,0,1,0-1.07l1.572-1.55,1.64,1.61Zm18.316-13-11.837-11.62a1.09,1.09,0,0,0-.662-0.3l-6.054-.52h-0.094a1.054,1.054,0,0,0-1.045.84l-0.485,2.36a2.8,2.8,0,0,1-5.047.97,2.672,2.672,0,0,1-.41-2.05l0.485-2.36a6.64,6.64,0,0,1,7.814-5.1h0.023l10.362,1.83,1.28,1.25,10.33,10.13Zm9.17-9-3,2.95-10.33-10.13a1.07,1.07,0,0,1-.32-0.75,1.047,1.047,0,0,1,.32-0.74l2.25-2.21a1.066,1.066,0,0,1,.76-0.31,1.1,1.1,0,0,1,.76.31l9.56,9.39A1.027,1.027,0,0,1,1019.55,2804.28Zm-2.58-1.37a1.045,1.045,0,1,1-1.07,1.04A1.052,1.052,0,0,1,1016.97,2802.91Z" transform="translate(-974.881 -2790.85)"/>
</svg>
