<svg xmlns="http://www.w3.org/2000/svg" width="48" height="52" viewBox="0 0 48 52">
  <metadata><?xpacket begin="﻿" id="W5M0MpCehiHzreSzNTczkc9d"?>
<x:xmpmeta xmlns:x="adobe:ns:meta/" x:xmptk="Adobe XMP Core 5.6-c138 79.159824, 2016/09/14-01:09:01        ">
   <rdf:RDF xmlns:rdf="http://www.w3.org/1999/02/22-rdf-syntax-ns#">
      <rdf:Description rdf:about=""/>
   </rdf:RDF>
</x:xmpmeta>
                                                                                                    
                                                                                                    
                                                                                                    
                                                                                                    
                                                                                                    
                                                                                                    
                                                                                                    
                                                                                                    
                                                                                                    
                                                                                                    
                                                                                                    
                                                                                                    
                                                                                                    
                                                                                                    
                                                                                                    
                                                                                                    
                                                                                                    
                                                                                                    
                                                                                                    
                                                                                                    
                           
<?xpacket end="w"?></metadata>
<defs>
    <style>
      .cls-1 {
        fill: #fff;
        fill-rule: evenodd;
      }
    </style>
  </defs>
  <path class="cls-1" d="M1742.7,790.891a0.832,0.832,0,0,0-.96.665l-1.3,7.383a0.817,0.817,0,0,0,.68.94,0.923,0.923,0,0,0,.14.012,0.838,0.838,0,0,0,.83-0.677l1.29-7.383A0.81,0.81,0,0,0,1742.7,790.891Zm2.19-11.688-5.37-1.814a0.836,0.836,0,0,0-1.06.5,0.812,0.812,0,0,0,.51,1.036l4.71,1.588-0.72,4.091a0.817,0.817,0,0,0,.68.94,0.923,0.923,0,0,0,.14.012,0.838,0.838,0,0,0,.83-0.677l0.83-4.772A0.807,0.807,0,0,0,1744.89,779.2Zm-7.6-2.566-3.56-1.2a0.851,0.851,0,0,0-1.07.5,0.817,0.817,0,0,0,.52,1.036l3.57,1.2a0.822,0.822,0,0,0,.27.045,0.841,0.841,0,0,0,.79-0.548A0.809,0.809,0,0,0,1737.29,776.637Zm-6.78,13.067a5.742,5.742,0,1,0-3.02,0,8.712,8.712,0,0,0-7.34,8.5v4.343a0.821,0.821,0,0,0,.83.814h16.04a0.821,0.821,0,0,0,.83-0.814v-4.343A8.712,8.712,0,0,0,1730.51,789.7Zm-5.58-5.394a4.071,4.071,0,1,1,4.07,3.963A4.025,4.025,0,0,1,1724.93,784.31Zm11.25,17.426h-14.36v-3.528a7.182,7.182,0,0,1,14.36,0v3.528h0Zm12.49-24.707-19.4-6.545a0.833,0.833,0,0,0-.54,0l-19.4,6.545a0.817,0.817,0,0,0-.55.907l4.63,26.337a0.839,0.839,0,0,0,.35.53l14.76,10.074a0.857,0.857,0,0,0,.96,0l14.76-10.074a0.839,0.839,0,0,0,.35-0.53l4.63-26.337A0.817,0.817,0,0,0,1748.67,777.029ZM1743,803.663l-14,9.553-14-9.553-4.45-25.321,18.45-6.227,18.45,6.227Zm9.44-28.808-23.17-7.818a0.846,0.846,0,0,0-.54,0l-23.17,7.818a0.807,0.807,0,0,0-.55.907l5.35,30.4a0.789,0.789,0,0,0,.34.529l17.82,12.161a0.857,0.857,0,0,0,.96,0l17.82-12.161a0.787,0.787,0,0,0,.34-0.529l5.35-30.4A0.807,0.807,0,0,0,1752.44,774.855Zm-6.38,30.7L1729,817.192l-17.06-11.639-5.16-29.385,22.22-7.5,22.22,7.5Z" transform="translate(-1705 -767)"/>
</svg>
