<svg xmlns="http://www.w3.org/2000/svg" width="39" height="39" viewBox="0 0 39 39">
  <metadata><?xpacket begin="﻿" id="W5M0MpCehiHzreSzNTczkc9d"?>
<x:xmpmeta xmlns:x="adobe:ns:meta/" x:xmptk="Adobe XMP Core 5.6-c138 79.159824, 2016/09/14-01:09:01        ">
   <rdf:RDF xmlns:rdf="http://www.w3.org/1999/02/22-rdf-syntax-ns#">
      <rdf:Description rdf:about=""/>
   </rdf:RDF>
</x:xmpmeta>
                                                                                                    
                                                                                                    
                                                                                                    
                                                                                                    
                                                                                                    
                                                                                                    
                                                                                                    
                                                                                                    
                                                                                                    
                                                                                                    
                                                                                                    
                                                                                                    
                                                                                                    
                                                                                                    
                                                                                                    
                                                                                                    
                                                                                                    
                                                                                                    
                                                                                                    
                                                                                                    
                           
<?xpacket end="w"?></metadata>
<defs>
    <style>
      .cls-1 {
        fill: #00407a;
        fill-rule: evenodd;
      }
    </style>
  </defs>
  <path id="Forma_1" data-name="Forma 1" class="cls-1" d="M412.368,2672.55H410.1v-4.07a1.781,1.781,0,0,0-1.776-1.78H407.5V2655h-26v1.3h-1.95v1.3H377.6v4.55h-0.824a1.781,1.781,0,0,0-1.776,1.78v28.39h0a1.653,1.653,0,0,0,1.663,1.68h29.094a1.65,1.65,0,0,0,1.591-1.18L414,2674.6v-0.12A1.739,1.739,0,0,0,412.368,2672.55Zm-4.044-4.55a0.475,0.475,0,0,1,.476.48v4.07h-1.3V2668h0.824Zm-2.124-11.7v16.25H383.275a1.6,1.6,0,0,0-.438.06c-0.012.01-.025,0-0.037,0.01V2656.3h23.4Zm-24.7,1.3v16.63l-0.041.11-0.609,1.67V2657.6h0.65Zm-2.6,1.3h0.65v20.68l-0.65,1.78V2658.9Zm-2.6,5.03a0.475,0.475,0,0,1,.476-0.48H377.6v21.41l-1.3,3.55v-24.48Zm29.814,28.5a0.364,0.364,0,0,1-.353.27H376.667a0.373,0.373,0,0,1-.371-0.41l1.3-3.57h0l1.95-5.35h0l1.95-5.35h0l1.256-3.44,0.044-.12h0l0.1-.29,0.017-.05a0.366,0.366,0,0,1,.354-0.27h29.093a0.5,0.5,0,0,1,.326.53ZM386.7,2666.05h15.6a0.65,0.65,0,0,0,0-1.3H386.7A0.65,0.65,0,1,0,386.7,2666.05Zm0-4.55h6.5a0.65,0.65,0,0,0,0-1.3h-6.5A0.65,0.65,0,1,0,386.7,2661.5Zm0,9.1h15.6a0.65,0.65,0,0,0,0-1.3H386.7A0.65,0.65,0,1,0,386.7,2670.6Z" transform="translate(-375 -2655)"/>
</svg>
