<svg xmlns="http://www.w3.org/2000/svg" width="49" height="57" viewBox="0 0 49 57">
  <metadata><?xpacket begin="﻿" id="W5M0MpCehiHzreSzNTczkc9d"?>
<x:xmpmeta xmlns:x="adobe:ns:meta/" x:xmptk="Adobe XMP Core 5.6-c138 79.159824, 2016/09/14-01:09:01        ">
   <rdf:RDF xmlns:rdf="http://www.w3.org/1999/02/22-rdf-syntax-ns#">
      <rdf:Description rdf:about=""/>
   </rdf:RDF>
</x:xmpmeta>
                                                                                                    
                                                                                                    
                                                                                                    
                                                                                                    
                                                                                                    
                                                                                                    
                                                                                                    
                                                                                                    
                                                                                                    
                                                                                                    
                                                                                                    
                                                                                                    
                                                                                                    
                                                                                                    
                                                                                                    
                                                                                                    
                                                                                                    
                                                                                                    
                                                                                                    
                                                                                                    
                           
<?xpacket end="w"?></metadata>
<defs>
    <style>
      .cls-1 {
        fill: #fff;
        fill-rule: evenodd;
      }
    </style>
  </defs>
  <path id="Forma_1" data-name="Forma 1" class="cls-1" d="M264.9,1772.3a0.045,0.045,0,0,1,.006-0.02c0.01-.05.02-0.09,0.028-0.13,0-.02.006-0.03,0.008-0.05,0.007-.04.014-0.07,0.019-0.11,0-.02.006-0.05,0.009-0.07s0.009-.06.012-0.09,0-.07.007-0.1,0-.05.005-0.07c0-.06,0-0.12,0-0.17v-5.94a9.8,9.8,0,0,0-1.091-4.35c-0.125-.26-0.261-0.51-0.405-0.75s-0.3-.49-0.461-0.72-0.332-.46-0.51-0.69c-0.089-.11-0.181-0.22-0.273-0.33a10.694,10.694,0,0,0-4.783-3.27l-1.8-.56-2.659-.84-0.041-.05h0c-0.016-.02-0.034-0.04-0.053-0.06l-2.118-2.07a1.752,1.752,0,0,0-1.22-.51c-0.024-.25-0.041-0.5-0.051-0.77,0-.08,0-0.15-0.006-0.23a18.99,18.99,0,0,0,4.3-9.61,0.8,0.8,0,0,0,.249-0.51l0.447-4.6a0.823,0.823,0,0,0,.467-0.74v-12.85a0.832,0.832,0,0,0-.466-0.75,31.534,31.534,0,0,0-28.058,0,0.832,0.832,0,0,0-.466.75v12.85a0.823,0.823,0,0,0,.467.74l0.446,4.6a0.8,0.8,0,0,0,.25.51,18.938,18.938,0,0,0,4.3,9.6c-0.008.36-.028,0.7-0.061,1.01a1.775,1.775,0,0,0-1.211.51l-2.118,2.07q-0.029.03-.054,0.06h0l-0.041.05-4.456,1.4A11.335,11.335,0,0,0,216,1765.55v5.94c0,0.05,0,.11,0,0.17,0,0.02,0,.05,0,0.07s0,0.06.007,0.1,0.008,0.06.012,0.09,0,0.05.008,0.07c0.006,0.04.012,0.07,0.019,0.11,0,0.02.006,0.03,0.009,0.05,0.008,0.04.018,0.08,0.028,0.13a0.045,0.045,0,0,1,.006.02c0.011,0.05.024,0.1,0.038,0.15h0a3.578,3.578,0,0,0,3.444,2.55h41.836a3.576,3.576,0,0,0,3.443-2.55h0C264.876,1772.4,264.888,1772.35,264.9,1772.3Zm-21.772,1.03-0.506-9.52a1.678,1.678,0,0,0,.3-0.37l0.77,0.76a1.8,1.8,0,0,0,1.245.5h0.139a1.773,1.773,0,0,0,1.287-.71l3.073-4.14-5,13.48h-1.31Zm-6.566,0-5-13.48,3.073,4.14a1.773,1.773,0,0,0,1.287.71h0.139a1.8,1.8,0,0,0,1.245-.5l0.77-.76a1.678,1.678,0,0,0,.3.37l-0.506,9.52h-1.31Zm-8.855-11.75a0.83,0.83,0,0,0-.376-0.61l-1.868-1.22a0.106,0.106,0,0,1-.025-0.04c0-.03.009-0.04,0.014-0.04a0.034,0.034,0,0,1,.014-0.02l2.919-3.46,6.35,17.1h-3.787l-5.6-8.77c-0.015-.02-0.031-0.05-0.049-0.07a0.049,0.049,0,0,1,0-.07l2.16-2.12A0.842,0.842,0,0,0,227.707,1761.58Zm0.867-21.95-0.38-3.9h1.238c-0.214,1.18-.424,2.89-0.557,4.06Zm0.6,2.24a0.853,0.853,0,0,0,.412.1,0.91,0.91,0,0,0,.4-0.09,0.841,0.841,0,0,0,.453-0.66c0.167-1.64.482-4.25,0.728-5.49h18.674c0.246,1.24.561,3.85,0.728,5.49a0.841,0.841,0,0,0,.453.66,0.909,0.909,0,0,0,.4.09,0.854,0.854,0,0,0,.413-0.1l0.062-.03c-1.3,5.69-5.136,10.96-11.388,10.96s-10.09-5.27-11.388-10.96Zm23.253-2.24-0.3.16c-0.133-1.17-.343-2.88-0.557-4.06h1.238Zm-19.368,12.24a11.935,11.935,0,0,0,14.873,0c0,0.03.007,0.06,0.011,0.09a0.916,0.916,0,0,0,.046.18l-7.489,6.62-7.5-6.63a0.783,0.783,0,0,0,.044-0.17C233.05,1751.93,233.054,1751.9,233.059,1751.87Zm6.532,10.75a0.062,0.062,0,0,1-.057-0.06v-0.55l0.966-.95,0.966,0.95v0.55a0.062,0.062,0,0,1-.056.06h-1.819Zm0.469,1.67h0.88l0.481,9.04h-1.842Zm13.479-2.03,2.161,2.12a0.05,0.05,0,0,1,0,.07c-0.017.02-.034,0.05-0.049,0.07l-5.6,8.77h-3.788l6.35-17.1,2.92,3.46a0.034,0.034,0,0,1,.013.02s0.017,0.01.014,0.04a0.1,0.1,0,0,1-.025.04l-1.868,1.22a0.829,0.829,0,0,0-.375.61A0.841,0.841,0,0,0,253.539,1762.26Zm9.755,3.29v5.94c0,0.05,0,.11-0.01.17a0.646,0.646,0,0,1-.011.08c0,0.03-.008.06-0.014,0.09s-0.016.07-.026,0.11c0,0.02-.008.03-0.013,0.05a1.037,1.037,0,0,1-.044.13,0.159,0.159,0,0,0-.007.02,1.859,1.859,0,0,1-1.486,1.15h-9.618l5.016-7.85a1.7,1.7,0,0,0-.175-2.24l-1.426-1.4,1-.66a1.722,1.722,0,0,0,.769-1.21,1.688,1.688,0,0,0-.409-1.35l-1.808-2.15,1.922,0.6A9.689,9.689,0,0,1,263.294,1765.55Zm-12.089-10.94-6.221,8.4a0.071,0.071,0,0,1-.042.02,0.046,0.046,0,0,1-.044-0.02l-3.16-3.1,7.786-6.87a0.058,0.058,0,0,1,.078,0Zm-23.494-32.06a29.836,29.836,0,0,1,25.578,0v11.5H227.711v-11.5Zm3.687,30.49a0.058,0.058,0,0,1,.078,0l7.786,6.87-3.16,3.1a0.046,0.046,0,0,1-.044.02,0.071,0.071,0,0,1-.042-0.02l-6.221-8.4Zm-13.691,12.51a9.689,9.689,0,0,1,6.337-8.52l1.921-.6-1.808,2.15a1.7,1.7,0,0,0-.409,1.35,1.725,1.725,0,0,0,.769,1.21l1,0.66-1.426,1.4a1.7,1.7,0,0,0-.175,2.24l5.016,7.85h-9.618a1.861,1.861,0,0,1-1.486-1.15c0-.01,0-0.01-0.006-0.02a0.894,0.894,0,0,1-.045-0.13c0-.02-0.009-0.03-0.013-0.05-0.009-.04-0.019-0.07-0.026-0.11s-0.009-.06-0.014-0.09a0.646,0.646,0,0,1-.011-0.08c-0.006-.06-0.009-0.12-0.009-0.17v-5.94h0Zm26.431-39.53h-2.785v-2.73a0.853,0.853,0,0,0-1.705,0v2.73h-2.786a0.835,0.835,0,1,0,0,1.67h2.786v2.74a0.853,0.853,0,0,0,1.705,0v-2.74h2.785A0.835,0.835,0,1,0,244.138,1726.02Z" transform="translate(-216 -1718)"/>
</svg>
