<svg xmlns="http://www.w3.org/2000/svg" width="61" height="46" viewBox="0 0 61 46">
  <metadata><?xpacket begin="﻿" id="W5M0MpCehiHzreSzNTczkc9d"?>
<x:xmpmeta xmlns:x="adobe:ns:meta/" x:xmptk="Adobe XMP Core 5.6-c138 79.159824, 2016/09/14-01:09:01        ">
   <rdf:RDF xmlns:rdf="http://www.w3.org/1999/02/22-rdf-syntax-ns#">
      <rdf:Description rdf:about=""/>
   </rdf:RDF>
</x:xmpmeta>
                                                                                                    
                                                                                                    
                                                                                                    
                                                                                                    
                                                                                                    
                                                                                                    
                                                                                                    
                                                                                                    
                                                                                                    
                                                                                                    
                                                                                                    
                                                                                                    
                                                                                                    
                                                                                                    
                                                                                                    
                                                                                                    
                                                                                                    
                                                                                                    
                                                                                                    
                                                                                                    
                           
<?xpacket end="w"?></metadata>
<defs>
    <style>
      .cls-1 {
        fill: #00407a;
        fill-rule: evenodd;
      }
    </style>
  </defs>
  <path class="cls-1" d="M748.958,755.478h-0.066v-5.432a28.831,28.831,0,0,0-22.224-28.216,3.146,3.146,0,0,0-.853-1.869,3.046,3.046,0,0,0-2.227-.961h-6.176a3.045,3.045,0,0,0-2.227.961,3.146,3.146,0,0,0-.853,1.869,28.831,28.831,0,0,0-22.224,28.216v5.432h-0.066A2.063,2.063,0,0,0,690,757.557v1.367a2.068,2.068,0,0,0,1.4,1.979c7.938,2.642,18.273,4.1,29.1,4.1s21.163-1.455,29.1-4.1a2.067,2.067,0,0,0,1.4-1.979v-1.367A2.063,2.063,0,0,0,748.958,755.478Zm-32.352-34.119a1.1,1.1,0,0,1,.806-0.348h6.176a1.1,1.1,0,0,1,.805.348,1.138,1.138,0,0,1,.314.831L723.8,749.013a1.126,1.126,0,0,1-1.12,1.1h-4.358a1.126,1.126,0,0,1-1.12-1.1l-0.908-26.823A1.141,1.141,0,0,1,716.606,721.359Zm32.418,37.565a0.068,0.068,0,0,1-.038.067c-7.744,2.578-17.861,4-28.486,4s-20.742-1.419-28.486-4a0.069,0.069,0,0,1-.038-0.067v-1.367a0.068,0.068,0,0,1,.066-0.068h37.944a1.006,1.006,0,0,0,0-2.011h-35.9v-5.432a27.022,27.022,0,0,1,13.958-23.718l2.144,15.278a0.994,0.994,0,0,0,.977.864,0.955,0.955,0,0,0,.141-0.01,1,1,0,0,0,.839-1.138L709.909,725.4a25.9,25.9,0,0,1,4.464-1.518l0.853,25.2a3.111,3.111,0,0,0,3.1,3.043h4.359a3.11,3.11,0,0,0,3.094-3.043l0.854-25.2a25.862,25.862,0,0,1,4.463,1.519l-2.234,15.918a1,1,0,0,0,.839,1.138,0.955,0.955,0,0,0,.141.01,0.994,0.994,0,0,0,.977-0.864l2.144-15.278a27.022,27.022,0,0,1,13.958,23.718v5.432h-6.39a1.006,1.006,0,0,0,0,2.012h8.432a0.067,0.067,0,0,1,.066.067v1.367h0Zm-12.714-3.446H734.2a1.006,1.006,0,0,0,0,2.012h2.108A1.006,1.006,0,0,0,736.31,755.478Zm-23.264-7.72-0.3-2.146a0.991,0.991,0,0,0-1.118-.854,1,1,0,0,0-.838,1.138l0.3,2.147a0.993,0.993,0,0,0,.977.863,0.975,0.975,0,0,0,.141-0.01A1,1,0,0,0,713.046,747.758Zm16.327-3a0.992,0.992,0,0,0-1.118.854l-0.3,2.146a1,1,0,0,0,.838,1.138,0.975,0.975,0,0,0,.141.01,0.993,0.993,0,0,0,.977-0.863l0.3-2.147A1,1,0,0,0,729.373,744.758Z" transform="translate(-690 -719)"/>
</svg>
