<svg xmlns="http://www.w3.org/2000/svg" width="33" height="42" viewBox="0 0 33 42">
  <metadata><?xpacket begin="﻿" id="W5M0MpCehiHzreSzNTczkc9d"?>
<x:xmpmeta xmlns:x="adobe:ns:meta/" x:xmptk="Adobe XMP Core 5.6-c138 79.159824, 2016/09/14-01:09:01        ">
   <rdf:RDF xmlns:rdf="http://www.w3.org/1999/02/22-rdf-syntax-ns#">
      <rdf:Description rdf:about=""/>
   </rdf:RDF>
</x:xmpmeta>
                                                                                                    
                                                                                                    
                                                                                                    
                                                                                                    
                                                                                                    
                                                                                                    
                                                                                                    
                                                                                                    
                                                                                                    
                                                                                                    
                                                                                                    
                                                                                                    
                                                                                                    
                                                                                                    
                                                                                                    
                                                                                                    
                                                                                                    
                                                                                                    
                                                                                                    
                                                                                                    
                           
<?xpacket end="w"?></metadata>
<defs>
    <style>
      .cls-1 {
        fill: #00407a;
        fill-rule: evenodd;
      }
    </style>
  </defs>
  <path id="Forma_1" data-name="Forma 1" class="cls-1" d="M410.28,2814.04h-1.4v-5.72a3.231,3.231,0,0,0-3.2-3.26h-0.83l1.371-1.8a0.744,0.744,0,0,0-.127-1.03l-4.082-3.23-2.241-6.85a0.748,0.748,0,0,0-.362-0.42,0.7,0.7,0,0,0-.55-0.04l-4.256,1.45-2.506-1.99a0.711,0.711,0,0,0-1.011.13l-10.506,13.78H378.72a0.727,0.727,0,0,0-.72.73v26.48a0.727,0.727,0,0,0,.72.73h26.961a3.231,3.231,0,0,0,3.2-3.26v-5.72h1.4a0.728,0.728,0,0,0,.72-0.73v-8.52A0.728,0.728,0,0,0,410.28,2814.04Zm-7.254-8.98h-0.055a3.592,3.592,0,0,1-.445-3.79l2.116,1.67Zm-4.393-11.74,1.33,4.06-3.991-3.16Zm-6.85-.56,2.114,1.68a3.449,3.449,0,0,1-3.758.48Zm-2.541,3.34a4.855,4.855,0,0,0,5.81-.75l6.319,5a5.1,5.1,0,0,0-.11,4.71H382.406Zm18.195,33.64a1.774,1.774,0,0,1-1.756,1.79h-26.24v-25h26.24a1.774,1.774,0,0,1,1.756,1.79v5.72h-6.813a0.727,0.727,0,0,0-.72.73v8.52a0.727,0.727,0,0,0,.72.73h6.813v5.72h0Zm2.122-7.19h-8.214v-7.04h8.214v7.04Zm-4.107-1.32a2.2,2.2,0,1,0-2.162-2.2A2.186,2.186,0,0,0,405.452,2821.23Zm0-2.93a0.73,0.73,0,1,1-.721.73A0.721,0.721,0,0,1,405.452,2818.3Z" transform="translate(-378 -2791)"/>
</svg>
