<svg xmlns="http://www.w3.org/2000/svg" width="38" height="35" viewBox="0 0 38 35">
  <metadata><?xpacket begin="﻿" id="W5M0MpCehiHzreSzNTczkc9d"?>
<x:xmpmeta xmlns:x="adobe:ns:meta/" x:xmptk="Adobe XMP Core 5.6-c138 79.159824, 2016/09/14-01:09:01        ">
   <rdf:RDF xmlns:rdf="http://www.w3.org/1999/02/22-rdf-syntax-ns#">
      <rdf:Description rdf:about=""/>
   </rdf:RDF>
</x:xmpmeta>
                                                                                                    
                                                                                                    
                                                                                                    
                                                                                                    
                                                                                                    
                                                                                                    
                                                                                                    
                                                                                                    
                                                                                                    
                                                                                                    
                                                                                                    
                                                                                                    
                                                                                                    
                                                                                                    
                                                                                                    
                                                                                                    
                                                                                                    
                                                                                                    
                                                                                                    
                                                                                                    
                           
<?xpacket end="w"?></metadata>
<defs>
    <style>
      .cls-1 {
        fill: #00407a;
        fill-rule: evenodd;
      }
    </style>
  </defs>
  <path id="Forma_1" data-name="Forma 1" class="cls-1" d="M412.367,2960.73V2935.9h-7.6v24.83h-1.9V2941h-7.6v19.73h-1.9v-14.64h-7.6v14.64h-1.9v-8.91h-7.6v8.91h-0.634a0.635,0.635,0,0,0,0,1.27h36.734A0.635,0.635,0,0,0,412.367,2960.73Zm-34.834,0v-7.64H382.6v7.64h-5.067Zm9.5,0v-13.37H392.1v13.37h-5.067Zm9.5,0v-18.46H401.6v18.46h-5.067Zm9.5,0v-23.55H411.1v23.55h-5.067Zm-25.947-17.62a0.6,0.6,0,0,0,.316-0.08l22.97-13.33-1.438,3.18a0.636,0.636,0,0,0,.314.84,0.619,0.619,0,0,0,.263.06,0.633,0.633,0,0,0,.577-0.38l2.256-4.98c0.007-.02,0-0.03.011-0.05a0.623,0.623,0,0,0,.028-0.1,0.467,0.467,0,0,0,.014-0.05c0-.01,0-0.02,0-0.02a0.667,0.667,0,0,0,0-.07,0.83,0.83,0,0,0-.015-0.11,0.583,0.583,0,0,0-.015-0.07,0.571,0.571,0,0,0-.031-0.06,0.22,0.22,0,0,0-.017-0.05,0.127,0.127,0,0,0-.034-0.04c-0.013-.02-0.024-0.04-0.039-0.06s-0.038-.03-0.057-0.05-0.052-.04-0.081-0.06a0.172,0.172,0,0,0-.059-0.04c-0.007,0-.01-0.01-0.017-0.01s-0.033-.01-0.049-0.02a0.382,0.382,0,0,0-.1-0.02,0.1,0.1,0,0,0-.047-0.02l-5.423-.53a0.64,0.64,0,0,0-.691.58,0.628,0.628,0,0,0,.568.69l3.456,0.34-22.969,13.33A0.631,0.631,0,0,0,380.086,2943.11Z" transform="translate(-375 -2927)"/>
</svg>
