<svg xmlns="http://www.w3.org/2000/svg" width="55.938" height="55" viewBox="0 0 55.938 55">
  <metadata><?xpacket begin="﻿" id="W5M0MpCehiHzreSzNTczkc9d"?>
<x:xmpmeta xmlns:x="adobe:ns:meta/" x:xmptk="Adobe XMP Core 5.6-c138 79.159824, 2016/09/14-01:09:01        ">
   <rdf:RDF xmlns:rdf="http://www.w3.org/1999/02/22-rdf-syntax-ns#">
      <rdf:Description rdf:about=""/>
   </rdf:RDF>
</x:xmpmeta>
                                                                                                    
                                                                                                    
                                                                                                    
                                                                                                    
                                                                                                    
                                                                                                    
                                                                                                    
                                                                                                    
                                                                                                    
                                                                                                    
                                                                                                    
                                                                                                    
                                                                                                    
                                                                                                    
                                                                                                    
                                                                                                    
                                                                                                    
                                                                                                    
                                                                                                    
                                                                                                    
                           
<?xpacket end="w"?></metadata>
<defs>
    <style>
      .cls-1 {
        fill: #fff;
        fill-rule: evenodd;
      }
    </style>
  </defs>
  <path class="cls-1" d="M578.593,766.105a3.593,3.593,0,0,0-5.186,0,3.472,3.472,0,0,0-.953,2.619l0.178,2.695h0a3.366,3.366,0,0,0,1.53,2.607,3.419,3.419,0,0,0,3.676,0,3.364,3.364,0,0,0,1.53-2.607l0.178-2.695A3.474,3.474,0,0,0,578.593,766.105Zm-1.273,2.476-0.178,2.695a1.143,1.143,0,0,1-2.283,0l-0.179-2.695a1.277,1.277,0,0,1,.355-0.975,1.338,1.338,0,0,1,1.93,0A1.277,1.277,0,0,1,577.32,768.581Zm7.5,12.427-0.31-1.684a5.537,5.537,0,0,0-4.434-4.395,5.646,5.646,0,0,0-1.03-.094h-0.933a1.124,1.124,0,0,0-.789.321,1.9,1.9,0,0,1-2.654,0,1.124,1.124,0,0,0-.789-0.321h-0.933a5.646,5.646,0,0,0-1.03.094,5.537,5.537,0,0,0-4.434,4.395l-0.31,1.684a1.082,1.082,0,0,0,.241.9,1.123,1.123,0,0,0,.857.394h15.451a1.123,1.123,0,0,0,.856-0.394A1.082,1.082,0,0,0,584.823,781.008Zm-15.213-.9,0.072-.39a3.313,3.313,0,0,1,2.652-2.629,3.455,3.455,0,0,1,.617-0.057h0.512a4.161,4.161,0,0,0,5.074,0h0.512a3.446,3.446,0,0,1,.617.057,3.312,3.312,0,0,1,2.652,2.629l0.072,0.39H569.61Zm8.983,23.7a3.593,3.593,0,0,0-5.186,0,3.47,3.47,0,0,0-.953,2.618l0.178,2.7a3.364,3.364,0,0,0,1.53,2.607,3.419,3.419,0,0,0,3.676,0,3.364,3.364,0,0,0,1.53-2.607l0.178-2.7A3.47,3.47,0,0,0,578.593,803.805Zm-1.273,2.475-0.178,2.7a1.143,1.143,0,0,1-2.283,0l-0.179-2.7a1.278,1.278,0,0,1,.355-0.975,1.338,1.338,0,0,1,1.93,0A1.278,1.278,0,0,1,577.32,806.28Zm7.5,12.426-0.31-1.683a5.537,5.537,0,0,0-4.434-4.395,5.647,5.647,0,0,0-1.03-.1h-0.933a1.125,1.125,0,0,0-.789.322,1.9,1.9,0,0,1-2.654,0,1.125,1.125,0,0,0-.789-0.322h-0.933a5.656,5.656,0,0,0-1.03.1,5.537,5.537,0,0,0-4.434,4.395l-0.31,1.683a1.083,1.083,0,0,0,.241.9,1.123,1.123,0,0,0,.857.394h15.451a1.123,1.123,0,0,0,.856-0.394A1.087,1.087,0,0,0,584.823,818.706Zm-15.213-.9,0.072-.39a3.312,3.312,0,0,1,2.652-2.628,3.365,3.365,0,0,1,.617-0.057h0.513a4.168,4.168,0,0,0,5.072,0h0.513a3.445,3.445,0,0,1,.617.056,3.312,3.312,0,0,1,2.652,2.629l0.072,0.39H569.61Zm-10.175-32.849a3.594,3.594,0,0,0-5.187,0,3.472,3.472,0,0,0-.953,2.618l0.178,2.7a3.366,3.366,0,0,0,1.53,2.608,3.425,3.425,0,0,0,3.676,0,3.366,3.366,0,0,0,1.53-2.608l0.178-2.7A3.476,3.476,0,0,0,559.435,784.955Zm-1.274,2.475-0.178,2.7a1.143,1.143,0,0,1-2.283,0l-0.179-2.7a1.274,1.274,0,0,1,.355-0.974,1.336,1.336,0,0,1,1.93,0A1.274,1.274,0,0,1,558.161,787.43Zm7.5,12.427-0.31-1.684a5.538,5.538,0,0,0-4.434-4.395,5.736,5.736,0,0,0-1.03-.094h-0.933a1.128,1.128,0,0,0-.789.321,1.9,1.9,0,0,1-2.654,0,1.128,1.128,0,0,0-.789-0.321h-0.933a5.736,5.736,0,0,0-1.03.094,5.538,5.538,0,0,0-4.434,4.395l-0.31,1.684a1.084,1.084,0,0,0,.241.9,1.126,1.126,0,0,0,.857.394h15.451a1.126,1.126,0,0,0,.856-0.394A1.084,1.084,0,0,0,565.664,799.857Zm-15.212-.9,0.071-.39a3.312,3.312,0,0,1,2.652-2.629,3.365,3.365,0,0,1,.617-0.057H554.3a4.164,4.164,0,0,0,5.074,0h0.512a3.357,3.357,0,0,1,.617.057,3.311,3.311,0,0,1,2.652,2.629l0.072,0.39H550.452Zm47.3-14a3.594,3.594,0,0,0-5.187,0,3.475,3.475,0,0,0-.952,2.618l0.178,2.7a3.366,3.366,0,0,0,1.53,2.608,3.425,3.425,0,0,0,3.676,0,3.366,3.366,0,0,0,1.53-2.608l0.178-2.7A3.472,3.472,0,0,0,597.752,784.955Zm-1.273,2.475-0.179,2.7a1.142,1.142,0,0,1-2.282,0l-0.179-2.7a1.274,1.274,0,0,1,.355-0.974,1.336,1.336,0,0,1,1.93,0A1.274,1.274,0,0,1,596.479,787.43Zm7.5,12.427-0.31-1.684a5.538,5.538,0,0,0-4.434-4.395,5.736,5.736,0,0,0-1.03-.094h-0.934a1.127,1.127,0,0,0-.788.321,1.9,1.9,0,0,1-2.654,0,1.128,1.128,0,0,0-.789-0.321H592.11a5.736,5.736,0,0,0-1.03.094,5.538,5.538,0,0,0-4.434,4.395l-0.31,1.684a1.084,1.084,0,0,0,.241.9,1.126,1.126,0,0,0,.856.394h15.451a1.126,1.126,0,0,0,.857-0.394A1.088,1.088,0,0,0,603.982,799.857Zm-15.213-.9,0.072-.39a3.312,3.312,0,0,1,2.652-2.629,3.357,3.357,0,0,1,.617-0.057h0.512a4.164,4.164,0,0,0,5.074,0h0.512a3.365,3.365,0,0,1,.617.057,3.311,3.311,0,0,1,2.652,2.629l0.072,0.39h-12.78Zm-18.563-26.877a1.121,1.121,0,0,0-1.414-.687,22.657,22.657,0,0,0-11.082,8.093,1.085,1.085,0,0,0,.257,1.531,1.126,1.126,0,0,0,1.557-.254,20.412,20.412,0,0,1,9.983-7.291A1.094,1.094,0,0,0,570.206,772.078Zm24.118,7.406A22.585,22.585,0,0,0,587,773.032a1.125,1.125,0,0,0-1.518.422,1.088,1.088,0,0,0,.429,1.494,20.36,20.36,0,0,1,6.6,5.813,1.126,1.126,0,0,0,1.557.254A1.085,1.085,0,0,0,594.324,779.484Zm-10.506-7.893c-0.19-.069-0.383-0.136-0.576-0.2a1.119,1.119,0,0,0-1.414.687,1.094,1.094,0,0,0,.7,1.392c0.173,0.058.348,0.118,0.518,0.18a1.121,1.121,0,0,0,1.433-.649A1.093,1.093,0,0,0,583.818,771.591Zm-14.311,38.794a20.414,20.414,0,0,1-9.983-7.292,1.127,1.127,0,0,0-1.557-.253,1.084,1.084,0,0,0-.257,1.53,22.659,22.659,0,0,0,11.082,8.094,1.123,1.123,0,0,0,1.414-.688A1.094,1.094,0,0,0,569.507,810.385Zm24.56-7.545a1.129,1.129,0,0,0-1.557.253,20.414,20.414,0,0,1-9.983,7.292,1.094,1.094,0,0,0-.7,1.391,1.123,1.123,0,0,0,1.414.688,22.347,22.347,0,0,0,11.082-8.093A1.085,1.085,0,0,0,594.067,802.84Z" transform="translate(-548.031 -765)"/>
</svg>
