<svg xmlns="http://www.w3.org/2000/svg" width="61" height="45" viewBox="0 0 61 45">
  <metadata><?xpacket begin="﻿" id="W5M0MpCehiHzreSzNTczkc9d"?>
<x:xmpmeta xmlns:x="adobe:ns:meta/" x:xmptk="Adobe XMP Core 5.6-c138 79.159824, 2016/09/14-01:09:01        ">
   <rdf:RDF xmlns:rdf="http://www.w3.org/1999/02/22-rdf-syntax-ns#">
      <rdf:Description rdf:about=""/>
   </rdf:RDF>
</x:xmpmeta>
                                                                                                    
                                                                                                    
                                                                                                    
                                                                                                    
                                                                                                    
                                                                                                    
                                                                                                    
                                                                                                    
                                                                                                    
                                                                                                    
                                                                                                    
                                                                                                    
                                                                                                    
                                                                                                    
                                                                                                    
                                                                                                    
                                                                                                    
                                                                                                    
                                                                                                    
                                                                                                    
                           
<?xpacket end="w"?></metadata>
<defs>
    <style>
      .cls-1 {
        fill: #fff;
        fill-rule: evenodd;
      }
    </style>
  </defs>
  <path class="cls-1" d="M222.714,782.429l-11.831-11.774a0.979,0.979,0,0,0-1.378,0l-5.915,5.887a0.967,0.967,0,0,0,0,1.371l0.59,0.587-1.356,1.35a3.059,3.059,0,0,1-3.4.594,8.453,8.453,0,0,0-7.5.277,6.594,6.594,0,0,0-3.814.2,3.045,3.045,0,0,1-3.217-.672l-2.435-2.424,0.29-.289a0.963,0.963,0,0,0,0-1.37l-5.915-5.887a0.977,0.977,0,0,0-1.378,0l-13.169,13.106a0.964,0.964,0,0,0,0,1.37l5.915,5.887a0.978,0.978,0,0,0,1.378,0l0.353-.351L171.647,792a2.964,2.964,0,0,1,.831,1.557,15.192,15.192,0,0,0,4.238,8.006l0.323,0.322a3.476,3.476,0,0,0,.064,4.868,3.507,3.507,0,0,0,2.48,1.02c0.058,0,.116,0,0.175,0a3.495,3.495,0,0,0,3.5,3.664l0.078,0a3.509,3.509,0,0,0,5.983,2.544c0.056-.056.108-0.113,0.16-0.172a3.274,3.274,0,0,0,3.394-.772,3.234,3.234,0,0,0,.74-1.13l0.1,0.1a3.282,3.282,0,0,0,5.388-1.171,3.295,3.295,0,0,0,4.242-.331,3.235,3.235,0,0,0,.959-2.306,3.3,3.3,0,0,0-.092-0.771,3.256,3.256,0,0,0,2.012-5.081l0.781-.778a15.181,15.181,0,0,0,4.256-8.106,2.626,2.626,0,0,1,.744-1.388l2.907-2.892,0.511,0.508a0.978,0.978,0,0,0,1.378,0l5.916-5.887A0.966,0.966,0,0,0,222.714,782.429Zm-53.826,6.159-4.538-4.515,11.792-11.735,4.538,4.516Zm11.8,16.8a1.564,1.564,0,0,1-2.2,0,1.546,1.546,0,0,1,0-2.193A1.554,1.554,0,0,1,180.684,805.385Zm3.676,3.658a1.55,1.55,0,1,1,0-2.193A1.551,1.551,0,0,1,184.36,809.043Zm3.581,3.564a1.55,1.55,0,1,1,0-2.193A1.553,1.553,0,0,1,187.941,812.607Zm16.547-7.443a1.331,1.331,0,0,1-1.875,0l-9.452-9.4a0.977,0.977,0,0,0-1.378,0,0.967,0.967,0,0,0,0,1.371l10.181,10.13a1.317,1.317,0,0,1,0,1.868,1.335,1.335,0,0,1-1.878,0l-1.717-1.709-0.029-.029-0.009-.009-7.895-7.857a0.979,0.979,0,0,0-1.378,0,0.967,0.967,0,0,0,0,1.371l7.921,7.882a1.317,1.317,0,0,1-.013,1.854,1.334,1.334,0,0,1-1.876,0l-8.589-8.547a0.978,0.978,0,0,0-1.377,0,0.965,0.965,0,0,0,0,1.371l6.366,6.336,0,0.006a1.313,1.313,0,0,1,0,1.865,1.317,1.317,0,0,1-.938.387,1.3,1.3,0,0,1-.251-0.024,3.494,3.494,0,0,0-3.467-4.006l-0.078,0a3.5,3.5,0,0,0-3.5-3.566c-0.059,0-.117,0-0.175,0a3.472,3.472,0,0,0-1.021-2.64,3.518,3.518,0,0,0-3.27-.931l-0.7-.695a13.271,13.271,0,0,1-3.7-6.991,4.883,4.883,0,0,0-1.368-2.572l-1.717-1.709,9.771-9.724,2.435,2.423a4.977,4.977,0,0,0,3.515,1.43,5.125,5.125,0,0,0,1.745-.306,4.56,4.56,0,0,1,.851-0.217l-6.032,6a3.874,3.874,0,0,0,0,5.5,3.926,3.926,0,0,0,5.526,0l3.03-3.015,0.82,0.817h0L193,791.867l0.033,0.033h0l0.028,0.027L204.489,803.3A1.317,1.317,0,0,1,204.488,805.164Zm6.137-14.464a4.545,4.545,0,0,0-1.284,2.417,13.272,13.272,0,0,1-3.716,7.078l-0.749.745-6.163-6.133c0.134,0.009.268,0.016,0.4,0.016a4.989,4.989,0,0,0,1.9-.368,0.97,0.97,0,1,0-.738-1.8c-2.507,1.022-5.513-1.792-5.848-2.116l-0.017-.016-0.034-.035h0l-0.03-.03h0l-0.82-.817,0.93-.926a0.965,0.965,0,0,0,0-1.371,0.978,0.978,0,0,0-1.377,0l-1.617,1.609,0,0,0,0-3.717,3.7a1.967,1.967,0,0,1-2.77,0,1.941,1.941,0,0,1,0-2.756l6.416-6.385a6.484,6.484,0,0,1,7.233-1.309,5.022,5.022,0,0,0,5.582-.989l1.356-1.349,7.974,7.935Zm5.485-3.069-10.453-10.4,4.537-4.516,10.454,10.4Zm0.981-4.744a0.97,0.97,0,1,1-.974.969A0.971,0.971,0,0,1,217.091,782.887Zm-48.711.957a0.97,0.97,0,1,1-.974.97A0.973,0.973,0,0,1,168.38,783.844Z" transform="translate(-162 -770)"/>
</svg>
