<svg xmlns="http://www.w3.org/2000/svg" width="39" height="54" viewBox="0 0 39 54">
  <metadata><?xpacket begin="﻿" id="W5M0MpCehiHzreSzNTczkc9d"?>
<x:xmpmeta xmlns:x="adobe:ns:meta/" x:xmptk="Adobe XMP Core 5.6-c138 79.159824, 2016/09/14-01:09:01        ">
   <rdf:RDF xmlns:rdf="http://www.w3.org/1999/02/22-rdf-syntax-ns#">
      <rdf:Description rdf:about=""/>
   </rdf:RDF>
</x:xmpmeta>
                                                                                                    
                                                                                                    
                                                                                                    
                                                                                                    
                                                                                                    
                                                                                                    
                                                                                                    
                                                                                                    
                                                                                                    
                                                                                                    
                                                                                                    
                                                                                                    
                                                                                                    
                                                                                                    
                                                                                                    
                                                                                                    
                                                                                                    
                                                                                                    
                                                                                                    
                                                                                                    
                           
<?xpacket end="w"?></metadata>
<defs>
    <style>
      .cls-1 {
        fill: #fff;
        fill-rule: evenodd;
      }
    </style>
  </defs>
  <path class="cls-1" d="M738.928,1666H702.072a1.074,1.074,0,0,0-1.072,1.08v51.84a1.074,1.074,0,0,0,1.072,1.08H730.1a1.042,1.042,0,0,0,.758-0.32l8.831-8.85a1.106,1.106,0,0,0,.314-0.77v-42.98A1.074,1.074,0,0,0,738.928,1666Zm-7.761,50.33,0-5.2,5.179,0.01Zm6.688-7.34-7.765-.01h0a1.083,1.083,0,0,0-.758.32,1.065,1.065,0,0,0-.314.76l0.007,7.79h-25.88v-49.7h34.711v40.84Zm-25.868-4.18a4.905,4.905,0,1,0,4.89,4.91A4.9,4.9,0,0,0,711.987,1704.81Zm0,7.66a2.755,2.755,0,1,1,2.745-2.75A2.755,2.755,0,0,1,711.987,1712.47Zm13.982-3.66h-5.9a1.075,1.075,0,0,0,0,2.15h5.9A1.075,1.075,0,0,0,725.969,1708.81ZM711.6,1672.45h-3.11a1.08,1.08,0,0,0,0,2.16h3.11A1.08,1.08,0,0,0,711.6,1672.45Zm21.338,0H723.61a1.08,1.08,0,0,0,0,2.16h9.328A1.08,1.08,0,0,0,732.938,1672.45Zm0,4.63H717.069a1.075,1.075,0,0,0,0,2.15h15.869A1.075,1.075,0,0,0,732.938,1677.08Zm0.054,8.5H708.008a1.075,1.075,0,0,0,0,2.15h24.984A1.075,1.075,0,0,0,732.992,1685.58Zm0,3.65H708.008a1.08,1.08,0,0,0,0,2.16h24.984A1.08,1.08,0,0,0,732.992,1689.23Zm0,3.98H708.008a1.08,1.08,0,0,0,0,2.16h24.984A1.08,1.08,0,0,0,732.992,1693.21Zm0,3.66H732.4a1.075,1.075,0,0,0,0,2.15h0.59A1.075,1.075,0,0,0,732.992,1696.87Zm-4.343,0H708.008a1.075,1.075,0,0,0,0,2.15h20.641A1.075,1.075,0,0,0,728.649,1696.87Z" transform="translate(-701 -1666)"/>
</svg>
