<svg xmlns="http://www.w3.org/2000/svg" width="68" height="68" viewBox="0 0 68 68">
  <metadata><?xpacket begin="﻿" id="W5M0MpCehiHzreSzNTczkc9d"?>
<x:xmpmeta xmlns:x="adobe:ns:meta/" x:xmptk="Adobe XMP Core 5.6-c138 79.159824, 2016/09/14-01:09:01        ">
   <rdf:RDF xmlns:rdf="http://www.w3.org/1999/02/22-rdf-syntax-ns#">
      <rdf:Description rdf:about=""/>
   </rdf:RDF>
</x:xmpmeta>
                                                                                                    
                                                                                                    
                                                                                                    
                                                                                                    
                                                                                                    
                                                                                                    
                                                                                                    
                                                                                                    
                                                                                                    
                                                                                                    
                                                                                                    
                                                                                                    
                                                                                                    
                                                                                                    
                                                                                                    
                                                                                                    
                                                                                                    
                                                                                                    
                                                                                                    
                                                                                                    
                           
<?xpacket end="w"?></metadata>
<defs>
    <style>
      .cls-1 {
        fill: #00407a;
        fill-rule: evenodd;
      }
    </style>
  </defs>
  <path id="Forma_1" data-name="Forma 1" class="cls-1" d="M1713.7,705.315a4.43,4.43,0,0,0-6.3,0l-10.77,10.879a4.517,4.517,0,0,0-.58,5.631l-0.8.8a5.886,5.886,0,0,0-1.68,4.112,3.957,3.957,0,0,1-1.13,2.765l-1.74,1.752a14.579,14.579,0,0,0-4.55-1.643,15.463,15.463,0,0,0-12.53,2.971,9.792,9.792,0,0,0-3.65,7.577v0.079h-22.03a0.944,0.944,0,0,0-.94.948v29.862a0.944,0.944,0,0,0,.94.948h45.4a0.944,0.944,0,0,0,.94-0.948v-24.99a9.461,9.461,0,0,0,2.17-5.9,10.043,10.043,0,0,0-4.15-7.837l1.47-1.478a5.89,5.89,0,0,0,1.68-4.113,3.957,3.957,0,0,1,1.13-2.765l0.8-.812a4.433,4.433,0,0,0,5.54-.613l10.78-10.879A4.528,4.528,0,0,0,1713.7,705.315Zm-43.73,36.823v10.441a0.945,0.945,0,0,0,.94.948,1.068,1.068,0,0,0,.17-0.015l1.75-.326v1.83a2.9,2.9,0,0,0,5.79,0V752.11l4.7-.873v3.779a2.816,2.816,0,1,0,5.63,0V749.9a13.7,13.7,0,0,0,3.45-1.978v11.751h-43.52V742.138h21.09Zm4.74,10.7,2.03-.378v2.557a1.015,1.015,0,0,1-2.03,0v-2.179Zm10.49-1.949,0.95-.178c0.32-.058.62-0.127,0.93-0.2v4.508a0.942,0.942,0,1,1-1.88,0v-4.128ZM1648.88,770.1v-8.532h43.52V770.1h-43.52Zm45.69-29.941h0c0,4.088-3.68,7.74-8.76,8.683l-13.96,2.6V740.163a7.874,7.874,0,0,1,2.97-6.12,13.031,13.031,0,0,1,8.32-2.809,14.536,14.536,0,0,1,2.67.246C1690.89,732.422,1694.57,736.074,1694.57,740.163Zm17.8-29.838L1701.59,721.2a2.549,2.549,0,0,1-1.82.76,2.519,2.519,0,0,1-1-.205h0a0.948,0.948,0,0,0,0-1.34,0.934,0.934,0,0,0-1.33,0l-0.01.013a2.627,2.627,0,0,1,.52-2.9l10.78-10.879a2.557,2.557,0,0,1,3.64,0A2.619,2.619,0,0,1,1712.37,710.325Zm-57.63,47.583a2.886,2.886,0,0,0,2.87-2.892v-7.5a2.87,2.87,0,1,0-5.74,0v7.5A2.886,2.886,0,0,0,1654.74,757.908Zm-0.99-10.392a0.99,0.99,0,1,1,1.98,0v7.5a0.99,0.99,0,1,1-1.98,0v-7.5Zm11.45,10.392a2.877,2.877,0,0,0,2.86-2.892v-7.5a2.865,2.865,0,1,0-5.73,0v7.5A2.886,2.886,0,0,0,1665.2,757.908Zm-0.99-10.392a0.99,0.99,0,1,1,1.98,0v7.5a0.99,0.99,0,1,1-1.98,0v-7.5Z" transform="translate(-1647 -704)"/>
</svg>
