<svg xmlns="http://www.w3.org/2000/svg" width="53" height="53" viewBox="0 0 53 53">
  <metadata><?xpacket begin="﻿" id="W5M0MpCehiHzreSzNTczkc9d"?>
<x:xmpmeta xmlns:x="adobe:ns:meta/" x:xmptk="Adobe XMP Core 5.6-c138 79.159824, 2016/09/14-01:09:01        ">
   <rdf:RDF xmlns:rdf="http://www.w3.org/1999/02/22-rdf-syntax-ns#">
      <rdf:Description rdf:about=""/>
   </rdf:RDF>
</x:xmpmeta>
                                                                                                    
                                                                                                    
                                                                                                    
                                                                                                    
                                                                                                    
                                                                                                    
                                                                                                    
                                                                                                    
                                                                                                    
                                                                                                    
                                                                                                    
                                                                                                    
                                                                                                    
                                                                                                    
                                                                                                    
                                                                                                    
                                                                                                    
                                                                                                    
                                                                                                    
                                                                                                    
                           
<?xpacket end="w"?></metadata>
<defs>
    <style>
      .cls-1 {
        fill: #00407a;
        fill-rule: evenodd;
      }
    </style>
  </defs>
  <path class="cls-1" d="M1221.09,760.553l-0.87-.35a26.5,26.5,0,0,0,2.19-32.611,1.059,1.059,0,0,0-.13-0.19,26.78,26.78,0,0,0-4.62-5.1,0.835,0.835,0,1,0-1.08,1.275,24.612,24.612,0,0,1,3.78,4.027,36.612,36.612,0,0,1-6.27,1.742,30.019,30.019,0,0,0-2.4-5.415,19.241,19.241,0,0,0-4.35-5.307,24.72,24.72,0,0,1,7.04,3.285,0.838,0.838,0,0,0,.94-1.387,26.5,26.5,0,0,0-34.53,39.689l-0.86.336a4.765,4.765,0,0,0-3.01,4.612v3a0.842,0.842,0,0,0,.84.838h12.32a0.725,0.725,0,0,1,.24,0h3.4a0.837,0.837,0,1,0,0-1.674h-2.57v-2.915a4.088,4.088,0,0,1,2.52-3.993l0.03-.014,4.08-1.6,0.03,0.028,2.16,2.11a0.855,0.855,0,0,0,.59.237h0.01a0.853,0.853,0,0,0,.59-0.256l2.08-2.158,4.07,1.632a0.134,0.134,0,0,0,.04.015,4.1,4.1,0,0,1,2.52,3.995v2.915h-13.53a0.837,0.837,0,1,0,0,1.674h26.92a0.838,0.838,0,0,0,.83-0.843v-2.994A4.756,4.756,0,0,0,1221.09,760.553Zm-2.53-1.015-0.83-.331V758.73a4.416,4.416,0,0,0,1.95-2.412,2.375,2.375,0,0,0,2.18-2.357,2.346,2.346,0,0,0-.88-1.834V750.64a5.646,5.646,0,0,0-4.92-5.593q0.045-.851.06-1.711h9.19A24.723,24.723,0,0,1,1218.56,759.538Zm-3.03-1.885h-0.76a2.682,2.682,0,0,1-2.68-2.681v-2.214h0a8.664,8.664,0,0,0,4.51-1.742,3.751,3.751,0,0,0,1.62,1.551v2.4A2.69,2.69,0,0,1,1215.53,757.653Zm0.53,1.642v0.464l-0.93.967-0.88-.853V759.3a4.4,4.4,0,0,0,.52.032h0.76A4.573,4.573,0,0,0,1216.06,759.3Zm-4.8-8.156h-0.01a0.714,0.714,0,0,0-.08,0l-0.03,0q-0.03,0-.06.009l-0.03.009-0.05.011a0.035,0.035,0,0,1-.02.01V750.64a3.969,3.969,0,0,1,3.96-3.965h0.4a3.972,3.972,0,0,1,3.97,3.965v0.539c-0.02,0-.03-0.009-0.05-0.013a0.152,0.152,0,0,0-.02-0.006,2.565,2.565,0,0,1-1.55-1.835,0.839,0.839,0,0,0-.65-0.635,0.851,0.851,0,0,0-.85.33C1214.68,751.115,1211.3,751.139,1211.26,751.139Zm8.63,3.386V753.4A0.693,0.693,0,0,1,1219.89,754.525Zm1.46-25.509a24.8,24.8,0,0,1,3.96,12.647h-9.19a42.275,42.275,0,0,0-1.53-10.709A37.386,37.386,0,0,0,1221.35,729.016Zm-6.9,12.647h-8.57a6.835,6.835,0,0,0-4.54-2.235v-7.2a75.458,75.458,0,0,0,11.6-.976A40.687,40.687,0,0,1,1214.45,741.663Zm-7.38,8.738a1.083,1.083,0,0,1-.79,1.035v-2.07A1.085,1.085,0,0,1,1207.07,750.4Zm-5.73-32.681c3.33,0.355,6.46,2.826,8.9,7.051a28.816,28.816,0,0,1,2.19,4.877,74.081,74.081,0,0,1-11.09.91V717.72h0Zm-0.53,23.359a5.177,5.177,0,0,1,5.17,5.17v1.023a0.034,0.034,0,0,1-.02-0.013c-0.01-.01-0.03-0.019-0.04-0.028l-0.03-.019a0.12,0.12,0,0,0-.04-0.023l-0.03-.019a0.205,0.205,0,0,1-.04-0.017c-0.01-.007-0.03-0.012-0.04-0.018a0.155,0.155,0,0,0-.04-0.011,0.234,0.234,0,0,0-.05-0.015,0.035,0.035,0,0,0-.02-0.006c-1.59-.362-2.09-2.435-2.1-2.453a0.834,0.834,0,0,0-1.49-.3c-1.96,2.709-6.29,2.737-6.35,2.737h0c-0.03,0-.06,0-0.09,0a0.062,0.062,0,0,1-.02,0l-0.06.009-0.03.009-0.05.011c-0.01,0-.03.01-0.04,0.015a0.268,0.268,0,0,1-.04.013c-0.01.007-.03,0.015-0.04,0.022l-0.03.013c-0.01.008-.03,0.018-0.04,0.027l-0.03.015a0.159,0.159,0,0,1-.04.029,0.034,0.034,0,0,1-.02.019,0.035,0.035,0,0,0-.02.02v-1.043a5.17,5.17,0,0,1,5.17-5.17h0.5Zm-14.26.584a40.7,40.7,0,0,1,1.51-10.409,75.667,75.667,0,0,0,11.6.978v7.205a6.8,6.8,0,0,0-4.43,2.232,0.726,0.726,0,0,0-.1-0.006h-8.58Zm8.3,7.695v2.087A1.074,1.074,0,0,1,1194.85,749.358Zm4.81-31.638v12.838a74.316,74.316,0,0,1-11.09-.912,28.794,28.794,0,0,1,2.19-4.875C1193.2,720.546,1196.33,718.075,1199.66,717.72Zm-6.01.915a19.24,19.24,0,0,0-4.34,5.3,29.968,29.968,0,0,0-2.4,5.413,36.688,36.688,0,0,1-6.26-1.737A24.9,24.9,0,0,1,1193.65,718.635Zm-13.99,10.385a37.531,37.531,0,0,0,6.75,1.932,42.285,42.285,0,0,0-1.53,10.711h-9.19A24.616,24.616,0,0,1,1179.66,729.02Zm5.39,30.275a4.711,4.711,0,0,0,.53.032h0.76a4.4,4.4,0,0,0,.52-0.032v0.463l-0.93.968-0.88-.853V759.3Zm1.29-1.642h-0.76a2.69,2.69,0,0,1-2.69-2.681v-2.213a8.658,8.658,0,0,0,4.51-1.743,3.807,3.807,0,0,0,1.62,1.551v2.4A2.682,2.682,0,0,1,1186.34,757.653Zm2.15-8.328a0.834,0.834,0,0,0-1.49-.305c-1.52,2.1-4.9,2.119-4.94,2.119h0c-0.03,0-.06,0-0.09,0l-0.02,0-0.06.009c-0.01,0-.02.006-0.04,0.009s-0.03.007-.04,0.011l-0.03.01V750.64a3.972,3.972,0,0,1,3.97-3.965h0.4a3.963,3.963,0,0,1,3.96,3.965v0.539h0c-0.01,0-.03-0.009-0.04-0.013s-0.02-.005-0.03-0.006A2.619,2.619,0,0,1,1188.49,749.325Zm-12.8-5.989h9.19c0.01,0.577.03,1.153,0.06,1.723a5.645,5.645,0,0,0-4.83,5.581v1.481a2.363,2.363,0,0,0,1.33,4.2,4.358,4.358,0,0,0,1.94,2.411V759.2l-0.91.358A24.688,24.688,0,0,1,1175.69,743.336Zm5.53,10.042v1.165A0.69,0.69,0,0,1,1181.22,753.378Zm8.26,11.033v2.915H1178.6v-2.163a3.111,3.111,0,0,1,1.89-3.034,0.177,0.177,0,0,0,.04-0.014l3.16-1.236,1.67,1.633a0.856,0.856,0,0,0,.59.238h0.01a0.835,0.835,0,0,0,.59-0.257l1.59-1.644,1.95,0.785A6.272,6.272,0,0,0,1189.48,764.411Zm8.07-7.312-4.44,1.739a5.347,5.347,0,0,0-2.04,1.384l-2.53-1.015v-0.476a4.362,4.362,0,0,0,1.94-2.413,2.366,2.366,0,0,0,1.31-4.191V750.64a5.644,5.644,0,0,0-5.17-5.618c-0.04-.559-0.06-1.122-0.07-1.686h7.56a6.919,6.919,0,0,0-.65,2.913V748.2a2.75,2.75,0,0,0,1.61,4.949,5.267,5.267,0,0,0,2.48,3.094V757.1h0Zm-6.86-2.574V753.4A0.68,0.68,0,0,1,1190.69,754.525Zm11.22,3.158v0.054l-1.37,1.422-1.31-1.275V756.83a5.217,5.217,0,0,0,.86.073h0.95a5.357,5.357,0,0,0,.87-0.072v0.852Zm-0.87-2.453h-0.95a3.568,3.568,0,0,1-3.56-3.564v-2.955a10.535,10.535,0,0,0,5.9-2.318,4.565,4.565,0,0,0,2.18,2.128v3.145A3.57,3.57,0,0,1,1201.04,755.23Zm8.91,5a5.268,5.268,0,0,0-2.04-1.388l-4.33-1.736v-0.859a5.282,5.282,0,0,0,2.49-3.1,2.749,2.749,0,0,0,1.58-4.94v-1.961a6.919,6.919,0,0,0-.65-2.913h7.45c-0.01.566-.04,1.132-0.07,1.693a5.654,5.654,0,0,0-5.08,5.611v1.481a2.364,2.364,0,0,0,1.33,4.2,4.359,4.359,0,0,0,1.94,2.41V759.2Zm0.47-6.85v1.165A0.69,0.69,0,0,1,1210.42,753.378Zm12,13.948h-10.88v-2.915a6.233,6.233,0,0,0-.61-2.767l1.95-.765,1.68,1.633a0.851,0.851,0,0,0,.58.238h0.02a0.854,0.854,0,0,0,.59-0.257l1.58-1.644,3.15,1.263a0.138,0.138,0,0,0,.04.014,3.11,3.11,0,0,1,1.9,3.037v2.163h0Z" transform="translate(-1174 -716)"/>
</svg>
