<svg xmlns="http://www.w3.org/2000/svg" width="47" height="47" viewBox="0 0 47 47">
  <metadata><?xpacket begin="﻿" id="W5M0MpCehiHzreSzNTczkc9d"?>
<x:xmpmeta xmlns:x="adobe:ns:meta/" x:xmptk="Adobe XMP Core 5.6-c138 79.159824, 2016/09/14-01:09:01        ">
   <rdf:RDF xmlns:rdf="http://www.w3.org/1999/02/22-rdf-syntax-ns#">
      <rdf:Description rdf:about=""/>
   </rdf:RDF>
</x:xmpmeta>
                                                                                                    
                                                                                                    
                                                                                                    
                                                                                                    
                                                                                                    
                                                                                                    
                                                                                                    
                                                                                                    
                                                                                                    
                                                                                                    
                                                                                                    
                                                                                                    
                                                                                                    
                                                                                                    
                                                                                                    
                                                                                                    
                                                                                                    
                                                                                                    
                                                                                                    
                                                                                                    
                           
<?xpacket end="w"?></metadata>
<defs>
    <style>
      .cls-1 {
        fill: #fff;
        fill-rule: evenodd;
      }
    </style>
  </defs>
  <path id="Forma_1" data-name="Forma 1" class="cls-1" d="M1367.25,811.5H1325.5V769.75a0.75,0.75,0,1,0-1.5,0v6.333h-2.25a0.75,0.75,0,0,0,0,1.5H1324v5.583h-2.25a0.75,0.75,0,0,0,0,1.5H1324v5.583h-2.25a0.751,0.751,0,0,0,0,1.5H1324v5.583h-2.25a0.75,0.75,0,1,0,0,1.5H1324v5.584h-2.25a0.75,0.75,0,0,0,0,1.5H1324v6.333a0.752,0.752,0,0,0,.75.75h11.08v2.251a0.75,0.75,0,0,0,1.5,0V813h17.34v2.251a0.75,0.75,0,0,0,1.5,0V813h11.08A0.75,0.75,0,1,0,1367.25,811.5Zm-38.5-1.5a0.754,0.754,0,0,0,.75-0.75v-17.5h6.33v17.5a0.75,0.75,0,0,0,1.5,0V798.832h5.92V809.25a0.75,0.75,0,0,0,1.5,0V798.083a0.752,0.752,0,0,0-.75-0.75h-6.67V791a0.746,0.746,0,0,0-.75-0.75h-7.83a0.753,0.753,0,0,0-.75.75V809.25A0.754,0.754,0,0,0,1328.75,810Zm19.25,0a0.754,0.754,0,0,0,.75-0.75V777.583h5.92V809.25a0.75,0.75,0,0,0,1.5,0V784.666h6.33V809.25a0.75,0.75,0,0,0,1.5,0V783.916a0.752,0.752,0,0,0-.75-0.749h-7.08v-6.334a0.753,0.753,0,0,0-.75-0.75H1348a0.753,0.753,0,0,0-.75.75V809.25A0.754,0.754,0,0,0,1348,810Z" transform="translate(-1321 -769)"/>
</svg>
