<svg xmlns="http://www.w3.org/2000/svg" width="48.094" height="55" viewBox="0 0 48.094 55">
  <metadata><?xpacket begin="﻿" id="W5M0MpCehiHzreSzNTczkc9d"?>
<x:xmpmeta xmlns:x="adobe:ns:meta/" x:xmptk="Adobe XMP Core 5.6-c138 79.159824, 2016/09/14-01:09:01        ">
   <rdf:RDF xmlns:rdf="http://www.w3.org/1999/02/22-rdf-syntax-ns#">
      <rdf:Description rdf:about=""/>
   </rdf:RDF>
</x:xmpmeta>
                                                                                                    
                                                                                                    
                                                                                                    
                                                                                                    
                                                                                                    
                                                                                                    
                                                                                                    
                                                                                                    
                                                                                                    
                                                                                                    
                                                                                                    
                                                                                                    
                                                                                                    
                                                                                                    
                                                                                                    
                                                                                                    
                                                                                                    
                                                                                                    
                                                                                                    
                                                                                                    
                           
<?xpacket end="w"?></metadata>
<defs>
    <style>
      .cls-1 {
        fill: #00407a;
        fill-rule: evenodd;
      }
    </style>
  </defs>
  <path id="Forma_1" data-name="Forma 1" class="cls-1" d="M252.264,744.06c3.413-7.735,1.878-17.742-3.8-23.443a19.005,19.005,0,0,0-26.978,0c-6.668,6.7-7.5,19.312-1.8,26.951l15.284,22.188,4.641-6.736A12.947,12.947,0,1,0,252.264,744.06ZM234.98,766.242L221.311,746.4c-5.173-6.934-4.431-18.321,1.588-24.369a17.021,17.021,0,0,1,24.164,0c5.226,5.254,6.524,15.012,3.008,22.02-0.387.03-.767,0.079-1.144,0.143l-0.143.021c-0.311.056-.614,0.127-0.917,0.2-0.126.031-.253,0.062-0.378,0.1-0.219.064-.435,0.136-0.65,0.211s-0.419.147-.624,0.23c-0.129.053-.258,0.109-0.385,0.167q-0.432.189-.846,0.41l-0.145.079a12.893,12.893,0,0,0-6.43,8.743c0,0.009,0,.02-0.007.03-0.075.375-.131,0.755-0.174,1.141-0.006.054-.017,0.105-0.023,0.157-0.043.433-.066,0.87-0.066,1.314,0,0.384.022,0.766,0.057,1.15,0.014,0.158.034,0.313,0.054,0.469,0.026,0.2.056,0.4,0.092,0.6s0.072,0.419.119,0.625c0.013,0.058.03,0.115,0.044,0.171,0.064,0.272.126,0.544,0.207,0.809ZM251.073,768a10.957,10.957,0,0,1-10.324-7.389c-0.09-.259-0.167-0.52-0.238-0.781-0.017-.063-0.033-0.128-0.049-0.19q-0.085-.348-0.15-0.7c-0.024-.137-0.044-0.274-0.063-0.41-0.025-.176-0.051-0.353-0.068-0.529-0.03-.331-0.051-0.664-0.051-1a11.016,11.016,0,0,1,5.706-9.655c0.043-.024.089-0.045,0.131-0.068,0.245-.13.5-0.252,0.75-0.363,0.156-.067.315-0.127,0.473-0.187s0.3-.114.449-0.164c0.256-.085.517-0.157,0.783-0.223,0.061-.015.122-0.033,0.184-0.049,0.33-.074.665-0.137,1.007-0.183l0.013,0q0.539-.071,1.094-0.088l0.446-.015A11,11,0,0,1,251.073,768Zm5.968-12h-4.974v-5a0.995,0.995,0,1,0-1.989,0v5H245.1a1,1,0,0,0,0,2h4.974v5a0.995,0.995,0,1,0,1.989,0v-5h4.974A1,1,0,0,0,257.041,756ZM242.12,734a6.964,6.964,0,1,0-6.964,7A6.991,6.991,0,0,0,242.12,734Zm-6.964,5a5,5,0,1,1,4.974-5A4.993,4.993,0,0,1,235.156,739Z" transform="translate(-215.906 -715)"/>
</svg>
