<svg xmlns="http://www.w3.org/2000/svg" width="60.4" height="55.4" viewBox="0 0 60.4 55.4">
  <metadata><?xpacket begin="﻿" id="W5M0MpCehiHzreSzNTczkc9d"?>
<x:xmpmeta xmlns:x="adobe:ns:meta/" x:xmptk="Adobe XMP Core 5.6-c138 79.159824, 2016/09/14-01:09:01        ">
   <rdf:RDF xmlns:rdf="http://www.w3.org/1999/02/22-rdf-syntax-ns#">
      <rdf:Description rdf:about=""/>
   </rdf:RDF>
</x:xmpmeta>
                                                                                                    
                                                                                                    
                                                                                                    
                                                                                                    
                                                                                                    
                                                                                                    
                                                                                                    
                                                                                                    
                                                                                                    
                                                                                                    
                                                                                                    
                                                                                                    
                                                                                                    
                                                                                                    
                                                                                                    
                                                                                                    
                                                                                                    
                                                                                                    
                                                                                                    
                                                                                                    
                           
<?xpacket end="w"?></metadata>
<defs>
    <style>
      .cls-1 {
        fill: #fff;
        stroke: #084b87;
        stroke-width: 0.4px;
        fill-rule: evenodd;
      }
    </style>
  </defs>
  <path id="Forma_1" data-name="Forma 1" class="cls-1" d="M1171.35,1774a1.323,1.323,0,0,1-.51-0.1,1.359,1.359,0,0,1-.74-1.77l3.72-9.23c1.61-3.97,4.45-9.21,10.7-9.47,0.05,0,.1-0.01.16-0.01h5.57c0.05,0,.11.01,0.16,0.01,6.24,0.26,9.09,5.5,10.69,9.47l0.48,1.19,10.01-9.3a1.359,1.359,0,0,1,1.84,2l-11.45,10.63a1.346,1.346,0,0,1-2.17-.49l-1.21-3.01c-1.93-4.77-4.16-7.15-7.28-7.67l-0.79,3.81,1.06,9.6a1.36,1.36,0,0,1-.5,1.21l-2.36,1.91a1.318,1.318,0,0,1-.85.3h-0.84a1.291,1.291,0,0,1-.84-0.3l-2.37-1.91a1.36,1.36,0,0,1-.5-1.21l1.07-9.6-0.8-3.81c-3.12.52-5.34,2.9-7.27,7.67l-3.73,9.23A1.348,1.348,0,0,1,1171.35,1774Zm14.75-4.78,1.36,1.1,1.36-1.1-0.87-7.87h-0.98Zm0.76-10.59h1.2l0.53-2.49h-2.25Zm41.79,11.04h-20.53a1.36,1.36,0,0,1,0-2.72h19.18v-39.07h-53.53v28.56a1.35,1.35,0,1,1-2.7,0v-29.92a1.359,1.359,0,0,1,1.35-1.36h56.23a1.353,1.353,0,0,1,1.35,1.36v41.79A1.353,1.353,0,0,1,1228.65,1769.67Zm-34.5-6.43a1.344,1.344,0,0,1-1.35-1.35v-0.19a1.35,1.35,0,1,1,2.7,0v0.19A1.351,1.351,0,0,1,1194.15,1763.24Zm-6.69-12.3a7.47,7.47,0,0,1,0-14.94,7.561,7.561,0,0,1,1.44.14c0.03,0.01.05,0.01,0.08,0.02A7.473,7.473,0,0,1,1187.46,1750.94Zm-2.41-11.56a4.728,4.728,0,1,0,4.2-.31,7.373,7.373,0,0,1-2.29,2.01,1.35,1.35,0,0,1-1.84-.52A1.365,1.365,0,0,1,1185.05,1739.38Zm36.28,2.48h-6.93a1.355,1.355,0,0,1,0-2.71h6.93A1.355,1.355,0,0,1,1221.33,1741.86Zm-13.21,0h-2.57a1.355,1.355,0,0,1,0-2.71h2.57A1.355,1.355,0,0,1,1208.12,1741.86Zm13.21-5.66h-13.86a1.355,1.355,0,1,1,0-2.71h13.86A1.355,1.355,0,0,1,1221.33,1736.2Zm-13.86-14.49H1193.6a1.355,1.355,0,0,1,0-2.71h13.87A1.355,1.355,0,0,1,1207.47,1721.71Z" transform="translate(-1169.8 -1718.8)"/>
</svg>
