<svg xmlns="http://www.w3.org/2000/svg" width="34" height="37" viewBox="0 0 34 37">
  <metadata><?xpacket begin="﻿" id="W5M0MpCehiHzreSzNTczkc9d"?>
<x:xmpmeta xmlns:x="adobe:ns:meta/" x:xmptk="Adobe XMP Core 5.6-c138 79.159824, 2016/09/14-01:09:01        ">
   <rdf:RDF xmlns:rdf="http://www.w3.org/1999/02/22-rdf-syntax-ns#">
      <rdf:Description rdf:about=""/>
   </rdf:RDF>
</x:xmpmeta>
                                                                                                    
                                                                                                    
                                                                                                    
                                                                                                    
                                                                                                    
                                                                                                    
                                                                                                    
                                                                                                    
                                                                                                    
                                                                                                    
                                                                                                    
                                                                                                    
                                                                                                    
                                                                                                    
                                                                                                    
                                                                                                    
                                                                                                    
                                                                                                    
                                                                                                    
                                                                                                    
                           
<?xpacket end="w"?></metadata>
<defs>
    <style>
      .cls-1 {
        fill: #00407a;
        fill-rule: evenodd;
      }
    </style>
  </defs>
  <path class="cls-1" d="M404.61,2539.32c0.14-1.56.208-3.33,0.208-5.67v-9.26a0.771,0.771,0,0,0-.515-0.72l-13.137-4.63a0.756,0.756,0,0,0-.514,0l-13.137,4.63a0.771,0.771,0,0,0-.515.72v9.26c0,11.97,1.779,16.34,13.561,22.27a0.8,0.8,0,0,0,.7,0,54.2,54.2,0,0,0,4.915-2.76A8.48,8.48,0,1,0,404.61,2539.32Zm-13.7,15.04c-10.9-5.54-12.364-9.25-12.364-20.71v-8.71l12.364-4.35,12.364,4.35v8.71c0,2.24-.063,3.94-0.193,5.42-0.192-.01-0.384-0.03-0.58-0.03a7.5,7.5,0,0,0-.952.06c0.043-.5.079-1.02,0.1-1.57a0.775,0.775,0,0,0-.772-0.8h-9.2v-13.69a0.766,0.766,0,0,0-.327-0.63,0.8,0.8,0,0,0-.7-0.1l-10.046,3.54a0.774,0.774,0,0,0-.515.73v7.07c0,1.43.021,2.71,0.075,3.88a0.77,0.77,0,0,0,.772.74h9.2v13.49a0.771,0.771,0,0,0,.374.66,0.812,0.812,0,0,0,.4.11,0.769,0.769,0,0,0,.361-0.09c1.274-.67,2.362-1.29,3.3-1.89a8.24,8.24,0,0,0,.679,1.37C394.036,2552.69,392.616,2553.5,390.909,2554.36Zm3.226-5.38c-0.716.48-1.512,0.96-2.453,1.49v-12.2h8.382c-0.027.41-.067,0.78-0.106,1.16a8.5,8.5,0,0,0-5.958,8.09A8.4,8.4,0,0,0,394.135,2548.98Zm-4-24.85v12.6h-8.455c-0.032-.95-0.045-1.97-0.045-3.08v-6.53Zm12.364,30.33a6.94,6.94,0,1,1,6.955-6.94A6.953,6.953,0,0,1,402.5,2554.46Zm3.317-9.8-4.862,4.85-1.772-1.76a0.759,0.759,0,0,0-1.093,0,0.769,0.769,0,0,0,0,1.09l2.318,2.31a0.789,0.789,0,0,0,1.093,0l5.409-5.4A0.772,0.772,0,1,0,405.817,2544.66Z" transform="translate(-377 -2519)"/>
</svg>
