<svg xmlns="http://www.w3.org/2000/svg" width="53" height="48" viewBox="0 0 53 48">
  <metadata><?xpacket begin="﻿" id="W5M0MpCehiHzreSzNTczkc9d"?>
<x:xmpmeta xmlns:x="adobe:ns:meta/" x:xmptk="Adobe XMP Core 5.6-c138 79.159824, 2016/09/14-01:09:01        ">
   <rdf:RDF xmlns:rdf="http://www.w3.org/1999/02/22-rdf-syntax-ns#">
      <rdf:Description rdf:about=""/>
   </rdf:RDF>
</x:xmpmeta>
                                                                                                    
                                                                                                    
                                                                                                    
                                                                                                    
                                                                                                    
                                                                                                    
                                                                                                    
                                                                                                    
                                                                                                    
                                                                                                    
                                                                                                    
                                                                                                    
                                                                                                    
                                                                                                    
                                                                                                    
                                                                                                    
                                                                                                    
                                                                                                    
                                                                                                    
                                                                                                    
                           
<?xpacket end="w"?></metadata>
<defs>
    <style>
      .cls-1 {
        fill: #fff;
        fill-rule: evenodd;
      }
    </style>
  </defs>
  <path id="Forma_1" data-name="Forma 1" class="cls-1" d="M1185.69,1669h-9.37a2.322,2.322,0,0,0-2.32,2.32v9.39a2.33,2.33,0,0,0,2.32,2.33h9.37a2.33,2.33,0,0,0,2.32-2.33v-9.39A2.322,2.322,0,0,0,1185.69,1669Zm-10.18,2.32a0.807,0.807,0,0,1,.81-0.81h9.37a0.807,0.807,0,0,1,.81.81v9.39a0.807,0.807,0,0,1-.81.81h-9.37a0.807,0.807,0,0,1-.81-0.81v-9.39Zm18.35,1.66h32.39a0.749,0.749,0,0,0,.75-0.75,0.758,0.758,0,0,0-.75-0.76h-32.39a0.758,0.758,0,0,0-.75.76A0.749,0.749,0,0,0,1193.86,1672.98Zm0,3.79h25.59a0.755,0.755,0,1,0,0-1.51h-25.59A0.755,0.755,0,0,0,1193.86,1676.77Zm32.39,2.28h-32.39a0.755,0.755,0,0,0,0,1.51h32.39A0.755,0.755,0,0,0,1226.25,1679.05Zm0,9.4h-32.39a0.76,0.76,0,0,0,0,1.52h32.39A0.76,0.76,0,0,0,1226.25,1688.45Zm-32.39,5.31h25.59a0.76,0.76,0,0,0,0-1.52h-25.59A0.76,0.76,0,0,0,1193.86,1693.76Zm32.39,2.27h-32.39a0.76,0.76,0,0,0,0,1.52h32.39A0.76,0.76,0,0,0,1226.25,1696.03Zm0,9.41h-32.39a0.755,0.755,0,0,0,0,1.51h32.39A0.755,0.755,0,0,0,1226.25,1705.44Zm-32.39,5.3h25.59a0.755,0.755,0,1,0,0-1.51h-25.59A0.755,0.755,0,0,0,1193.86,1710.74Zm32.39,2.28h-32.39a0.749,0.749,0,0,0-.75.75,0.758,0.758,0,0,0,.75.76h32.39a0.758,0.758,0,0,0,.75-0.76A0.749,0.749,0,0,0,1226.25,1713.02Zm-49.22-33.78a0.757,0.757,0,0,0,1.29.53l2.68-2.68,2.69,2.68a0.749,0.749,0,0,0,.53.22,0.791,0.791,0,0,0,.54-0.22,0.749,0.749,0,0,0,.22-0.53,0.773,0.773,0,0,0-.22-0.54l-2.69-2.68,2.69-2.69a0.767,0.767,0,0,0,0-1.07,0.791,0.791,0,0,0-.54-0.22,0.749,0.749,0,0,0-.53.22l-2.69,2.69-2.68-2.69a0.76,0.76,0,0,0-1.07,0,0.791,0.791,0,0,0-.22.54,0.749,0.749,0,0,0,.22.53l2.69,2.69-2.69,2.68A0.773,0.773,0,0,0,1177.03,1679.24Zm0,33.96a0.791,0.791,0,0,0,.22.54,0.76,0.76,0,0,0,1.07,0l2.68-2.69,2.69,2.69a0.749,0.749,0,0,0,.53.22,0.791,0.791,0,0,0,.54-0.22,0.767,0.767,0,0,0,0-1.07l-2.69-2.69,2.69-2.68a0.773,0.773,0,0,0,.22-0.54,0.749,0.749,0,0,0-.22-0.53,0.791,0.791,0,0,0-.54-0.22,0.749,0.749,0,0,0-.53.22l-2.69,2.68-2.68-2.68a0.755,0.755,0,0,0-1.29.53,0.791,0.791,0,0,0,.22.54l2.69,2.68-2.69,2.69A0.749,0.749,0,0,0,1177.03,1713.2Zm8.66-27.22h-9.37a2.322,2.322,0,0,0-2.32,2.32v9.4a2.322,2.322,0,0,0,2.32,2.32h9.37a2.322,2.322,0,0,0,2.32-2.32v-9.4A2.322,2.322,0,0,0,1185.69,1685.98Zm-10.18,2.32a0.813,0.813,0,0,1,.81-0.81h9.37a0.813,0.813,0,0,1,.81.81v9.4a0.813,0.813,0,0,1-.81.81h-9.37a0.813,0.813,0,0,1-.81-0.81v-9.4Zm10.18,14.66h-9.37a2.33,2.33,0,0,0-2.32,2.33v9.39a2.322,2.322,0,0,0,2.32,2.32h9.37a2.322,2.322,0,0,0,2.32-2.32v-9.39A2.33,2.33,0,0,0,1185.69,1702.96Zm-10.18,2.33a0.807,0.807,0,0,1,.81-0.81h9.37a0.807,0.807,0,0,1,.81.81v9.39a0.813,0.813,0,0,1-.81.81h-9.37a0.813,0.813,0,0,1-.81-0.81v-9.39Zm3.63-8.5a0.741,0.741,0,0,0,.57.27h0.04a0.772,0.772,0,0,0,.58-0.33l4.53-6.6a0.817,0.817,0,0,0,.12-0.57,0.785,0.785,0,0,0-.75-0.62,0.763,0.763,0,0,0-.62.33l-3.97,5.79-1.29-1.5a0.767,0.767,0,0,0-.58-0.26,0.742,0.742,0,0,0-.49.18,0.769,0.769,0,0,0-.08,1.07Z" transform="translate(-1174 -1669)"/>
</svg>
