<svg xmlns="http://www.w3.org/2000/svg" width="37" height="37" viewBox="0 0 37 37">
  <metadata><?xpacket begin="﻿" id="W5M0MpCehiHzreSzNTczkc9d"?>
<x:xmpmeta xmlns:x="adobe:ns:meta/" x:xmptk="Adobe XMP Core 5.6-c138 79.159824, 2016/09/14-01:09:01        ">
   <rdf:RDF xmlns:rdf="http://www.w3.org/1999/02/22-rdf-syntax-ns#">
      <rdf:Description rdf:about=""/>
   </rdf:RDF>
</x:xmpmeta>
                                                                                                    
                                                                                                    
                                                                                                    
                                                                                                    
                                                                                                    
                                                                                                    
                                                                                                    
                                                                                                    
                                                                                                    
                                                                                                    
                                                                                                    
                                                                                                    
                                                                                                    
                                                                                                    
                                                                                                    
                                                                                                    
                                                                                                    
                                                                                                    
                                                                                                    
                                                                                                    
                           
<?xpacket end="w"?></metadata>
<defs>
    <style>
      .cls-1 {
        fill: #00407a;
        fill-rule: evenodd;
      }
    </style>
  </defs>
  <path id="Forma_1" data-name="Forma 1" class="cls-1" d="M978.5,1418.65a5.825,5.825,0,1,0-5.826-5.82A5.829,5.829,0,0,0,978.5,1418.65Zm0-10.47a4.645,4.645,0,1,1-4.645,4.65A4.649,4.649,0,0,1,978.5,1408.18Zm0,12.83a8.914,8.914,0,0,1,8.88,8.31H973.734a0.594,0.594,0,0,0-.59.59,0.587,0.587,0,0,0,.59.59H987.99a0.587,0.587,0,0,0,.59-0.59,10.08,10.08,0,1,0-20.16,0,0.587,0.587,0,0,0,.59.59h2.362a0.588,0.588,0,0,0,.591-0.59,0.6,0.6,0,0,0-.591-0.59H969.62A8.914,8.914,0,0,1,978.5,1421.01Zm-7.447,15.72-3.239-.54-1.518-2.91a0.588,0.588,0,0,0-1.047,0l-1.518,2.91-3.239.54a0.593,0.593,0,0,0-.324,1l2.3,2.34-0.484,3.25a0.6,0.6,0,0,0,.237.57,0.586,0.586,0,0,0,.611.05l2.94-1.47,2.94,1.47a0.606,0.606,0,0,0,.263.06,0.623,0.623,0,0,0,.347-0.11,0.6,0.6,0,0,0,.237-0.57l-0.484-3.25,2.3-2.34A0.593,0.593,0,0,0,971.053,1436.73Zm-3.026,2.73a0.584,0.584,0,0,0-.163.5l0.361,2.42-2.189-1.09a0.548,0.548,0,0,0-.527,0l-2.189,1.09,0.361-2.42a0.581,0.581,0,0,0-.163-0.5l-1.713-1.75,2.412-.4a0.6,0.6,0,0,0,.425-0.31l1.131-2.17,1.13,2.17a0.6,0.6,0,0,0,.426.31l2.411,0.4Zm15.753-2.73-3.239-.54-1.517-2.91a0.589,0.589,0,0,0-1.048,0l-1.518,2.91-3.239.54a0.593,0.593,0,0,0-.323,1l2.3,2.34-0.484,3.25a0.6,0.6,0,0,0,.237.57,0.584,0.584,0,0,0,.61.05l2.94-1.47,2.94,1.47a0.606,0.606,0,0,0,.263.06,0.621,0.621,0,0,0,.347-0.11,0.6,0.6,0,0,0,.237-0.57l-0.484-3.25,2.3-2.34A0.593,0.593,0,0,0,983.78,1436.73Zm-3.025,2.73a0.581,0.581,0,0,0-.163.5l0.36,2.42-2.189-1.09a0.529,0.529,0,0,0-.526,0l-2.189,1.09,0.36-2.42a0.581,0.581,0,0,0-.163-0.5l-1.713-1.75,2.412-.4a0.6,0.6,0,0,0,.426-0.31l1.13-2.17,1.13,2.17a0.6,0.6,0,0,0,.426.31l2.412,0.4Zm16.217-2.33a0.6,0.6,0,0,0-.464-0.4l-3.239-.54-1.518-2.91a0.588,0.588,0,0,0-1.047,0l-1.518,2.91-3.239.54a0.593,0.593,0,0,0-.324,1l2.3,2.34-0.484,3.25a0.6,0.6,0,0,0,.237.57,0.584,0.584,0,0,0,.61.05l2.94-1.47,2.94,1.47a0.609,0.609,0,0,0,.263.06,0.618,0.618,0,0,0,.347-0.11,0.6,0.6,0,0,0,.237-0.57l-0.484-3.25,2.3-2.34A0.6,0.6,0,0,0,996.972,1437.13Zm-3.49,2.33a0.581,0.581,0,0,0-.163.5l0.361,2.42-2.19-1.09a0.529,0.529,0,0,0-.526,0l-2.189,1.09,0.361-2.42a0.581,0.581,0,0,0-.163-0.5l-1.713-1.75,2.411-.4a0.6,0.6,0,0,0,.426-0.31l1.13-2.17,1.131,2.17a0.6,0.6,0,0,0,.426.31l2.411,0.4ZM978.5,1415.5a2.662,2.662,0,0,0,2.02-.92,0.589,0.589,0,1,0-.891-0.77,1.5,1.5,0,0,1-2.258,0,0.589,0.589,0,1,0-.891.77A2.662,2.662,0,0,0,978.5,1415.5Z" transform="translate(-960 -1407)"/>
</svg>
