<svg xmlns="http://www.w3.org/2000/svg" width="56.3" height="51.3" viewBox="0 0 56.3 51.3">
  <metadata><?xpacket begin="﻿" id="W5M0MpCehiHzreSzNTczkc9d"?>
<x:xmpmeta xmlns:x="adobe:ns:meta/" x:xmptk="Adobe XMP Core 5.6-c138 79.159824, 2016/09/14-01:09:01        ">
   <rdf:RDF xmlns:rdf="http://www.w3.org/1999/02/22-rdf-syntax-ns#">
      <rdf:Description rdf:about=""/>
   </rdf:RDF>
</x:xmpmeta>
                                                                                                    
                                                                                                    
                                                                                                    
                                                                                                    
                                                                                                    
                                                                                                    
                                                                                                    
                                                                                                    
                                                                                                    
                                                                                                    
                                                                                                    
                                                                                                    
                                                                                                    
                                                                                                    
                                                                                                    
                                                                                                    
                                                                                                    
                                                                                                    
                                                                                                    
                                                                                                    
                           
<?xpacket end="w"?></metadata>
<defs>
    <style>
      .cls-1 {
        fill: #fff;
        stroke: #00407a;
        stroke-width: 0.3px;
        fill-rule: evenodd;
      }
    </style>
  </defs>
  <path id="Forma_1" data-name="Forma 1" class="cls-1" d="M1654.26,1718a1.259,1.259,0,0,1-1.17-1.73l3.48-8.56c1.53-3.77,4.28-8.79,10.42-8.79h4.61c6.14,0,8.89,5.02,10.43,8.79l0.44,1.1,9.35-8.62a1.26,1.26,0,0,1,1.71,1.85l-10.68,9.86a1.274,1.274,0,0,1-2.03-.45l-1.13-2.79c-1.64-4.05-3.52-6.24-6.05-6.96l-3.38,4.62a1.247,1.247,0,0,1-1.02.52,1.26,1.26,0,0,1-1.02-.52l-3.35-4.59c-2.49.74-4.34,2.93-5.96,6.93l-3.48,8.55A1.265,1.265,0,0,1,1654.26,1718Zm13.51-16.56,1.47,2.01,1.47-2.01h-2.94Zm39.97,12.54h-19.16a1.255,1.255,0,1,1,0-2.51h17.9v-36.24h-2.41v5.5a4.934,4.934,0,0,1-4.93,4.93h-14.92l-4.55,2.54a1.254,1.254,0,0,1-1.87-1.09v-15.19a4.931,4.931,0,0,1,4.93-4.92h16.41a4.931,4.931,0,0,1,4.93,4.92v0.79h3.67a1.261,1.261,0,0,1,1.26,1.26v38.75A1.255,1.255,0,0,1,1707.74,1713.98Zm-25.01-44.46a2.409,2.409,0,0,0-2.41,2.4v13.04l2.95-1.66a1.361,1.361,0,0,1,.62-0.16h15.25a2.411,2.411,0,0,0,2.41-2.41v-8.81a2.409,2.409,0,0,0-2.41-2.4h-16.41Zm-27.47,33.45a1.255,1.255,0,0,1-1.26-1.26v-27.74a1.261,1.261,0,0,1,1.26-1.26h18.29a1.26,1.26,0,0,1,0,2.52h-17.03v26.48A1.255,1.255,0,0,1,1655.26,1702.97Zm14.04-6.35a6.932,6.932,0,0,1-1.95-13.59c0.01,0,.03-0.01.04-0.01a6.833,6.833,0,0,1,1.91-.27,6.914,6.914,0,0,1,6.87,5.95,6.411,6.411,0,0,1,.07.99A6.942,6.942,0,0,1,1669.3,1696.62Zm-2.45-10.61a4.421,4.421,0,1,0,6.78,4.58,1.848,1.848,0,0,1-.23.01A6.939,6.939,0,0,1,1666.85,1686.01Zm2.42-.74a4.406,4.406,0,0,0,4.13,2.81h0.02a4.442,4.442,0,0,0-4.12-2.81h-0.03Zm26.12-5.15h-10.07a1.26,1.26,0,1,1,0-2.52h10.07A1.26,1.26,0,0,1,1695.39,1680.12Zm-3.11-5.06h-6.96a1.26,1.26,0,1,1,0-2.52h6.96A1.26,1.26,0,0,1,1692.28,1675.06Zm-18.95-5.54h-4.91a1.26,1.26,0,1,1,0-2.52h4.91A1.26,1.26,0,1,1,1673.33,1669.52Z" transform="translate(-1652.85 -1666.85)"/>
</svg>
