<svg xmlns="http://www.w3.org/2000/svg" width="54" height="54" viewBox="0 0 54 54">
  <metadata><?xpacket begin="﻿" id="W5M0MpCehiHzreSzNTczkc9d"?>
<x:xmpmeta xmlns:x="adobe:ns:meta/" x:xmptk="Adobe XMP Core 5.6-c138 79.159824, 2016/09/14-01:09:01        ">
   <rdf:RDF xmlns:rdf="http://www.w3.org/1999/02/22-rdf-syntax-ns#">
      <rdf:Description rdf:about=""/>
   </rdf:RDF>
</x:xmpmeta>
                                                                                                    
                                                                                                    
                                                                                                    
                                                                                                    
                                                                                                    
                                                                                                    
                                                                                                    
                                                                                                    
                                                                                                    
                                                                                                    
                                                                                                    
                                                                                                    
                                                                                                    
                                                                                                    
                                                                                                    
                                                                                                    
                                                                                                    
                                                                                                    
                                                                                                    
                                                                                                    
                           
<?xpacket end="w"?></metadata>
<defs>
    <style>
      .cls-1 {
        fill: #00407a;
        fill-rule: evenodd;
      }
    </style>
  </defs>
  <path id="Shape_1_copy_2" data-name="Shape 1 copy 2" class="cls-1" d="M1379.09,4243.91A26.991,26.991,0,1,0,1387,4263,26.823,26.823,0,0,0,1379.09,4243.91ZM1360,4287.85a24.85,24.85,0,1,1,24.85-24.85A24.881,24.881,0,0,1,1360,4287.85Zm21.74-20.41a1.081,1.081,0,0,0-1.31.78,21.058,21.058,0,0,1-20.43,15.86,1.075,1.075,0,1,0,0,2.15,23.2,23.2,0,0,0,22.52-17.48A1.086,1.086,0,0,0,1381.74,4267.44Zm0.42-5.52a1.088,1.088,0,0,0-1.08,1.08c0,0.31,0,.62-0.02.92a1.081,1.081,0,0,0,1.03,1.12h0.05a1.07,1.07,0,0,0,1.07-1.03c0.02-.33.03-0.67,0.03-1.01A1.088,1.088,0,0,0,1382.16,4261.92Zm-15.51-5.14-9.74,9.74-3.55-3.59a1.269,1.269,0,1,0-1.8,1.79l4.44,4.5a1.267,1.267,0,0,0,1.79,0l10.64-10.64a1.277,1.277,0,0,0,.01-1.8A1.256,1.256,0,0,0,1366.65,4256.78Z" transform="translate(-1333 -4236)"/>
</svg>
