<svg xmlns="http://www.w3.org/2000/svg" width="19.66" height="16.5" viewBox="0 0 19.66 16.5">
  <metadata><?xpacket begin="﻿" id="W5M0MpCehiHzreSzNTczkc9d"?>
<x:xmpmeta xmlns:x="adobe:ns:meta/" x:xmptk="Adobe XMP Core 5.6-c138 79.159824, 2016/09/14-01:09:01        ">
   <rdf:RDF xmlns:rdf="http://www.w3.org/1999/02/22-rdf-syntax-ns#">
      <rdf:Description rdf:about=""/>
   </rdf:RDF>
</x:xmpmeta>
                                                                                                    
                                                                                                    
                                                                                                    
                                                                                                    
                                                                                                    
                                                                                                    
                                                                                                    
                                                                                                    
                                                                                                    
                                                                                                    
                                                                                                    
                                                                                                    
                                                                                                    
                                                                                                    
                                                                                                    
                                                                                                    
                                                                                                    
                                                                                                    
                                                                                                    
                                                                                                    
                           
<?xpacket end="w"?></metadata>
<defs>
    <style>
      .cls-1 {
        fill: #00407a;
        fill-rule: evenodd;
      }
    </style>
  </defs>
  <path id="Forma_1" data-name="Forma 1" class="cls-1" d="M1624.46,4969.04a7.94,7.94,0,0,1-2.56,1.02,3.951,3.951,0,0,0-2.94-1.32,4.109,4.109,0,0,0-4.04,4.17,4.19,4.19,0,0,0,.11.95,11.329,11.329,0,0,1-8.31-4.36,4.29,4.29,0,0,0,1.25,5.57,3.962,3.962,0,0,1-1.83-.52v0.05a4.138,4.138,0,0,0,3.24,4.09,4.188,4.188,0,0,1-1.07.15,3.844,3.844,0,0,1-.76-0.08,4.079,4.079,0,0,0,3.77,2.9,7.913,7.913,0,0,1-5.01,1.78c-0.32,0-.64-0.02-0.96-0.05a11.167,11.167,0,0,0,6.18,1.87c7.41,0,11.47-6.36,11.47-11.87l-0.01-.54a8.279,8.279,0,0,0,2.01-2.16,7.578,7.578,0,0,1-2.31.66A4.161,4.161,0,0,0,1624.46,4969.04Z" transform="translate(-1605.34 -4968.75)"/>
</svg>
