<svg xmlns="http://www.w3.org/2000/svg" width="22.03" height="12.75" viewBox="0 0 22.03 12.75">
  <metadata><?xpacket begin="﻿" id="W5M0MpCehiHzreSzNTczkc9d"?>
<x:xmpmeta xmlns:x="adobe:ns:meta/" x:xmptk="Adobe XMP Core 5.6-c138 79.159824, 2016/09/14-01:09:01        ">
   <rdf:RDF xmlns:rdf="http://www.w3.org/1999/02/22-rdf-syntax-ns#">
      <rdf:Description rdf:about=""/>
   </rdf:RDF>
</x:xmpmeta>
                                                                                                    
                                                                                                    
                                                                                                    
                                                                                                    
                                                                                                    
                                                                                                    
                                                                                                    
                                                                                                    
                                                                                                    
                                                                                                    
                                                                                                    
                                                                                                    
                                                                                                    
                                                                                                    
                                                                                                    
                                                                                                    
                                                                                                    
                                                                                                    
                                                                                                    
                                                                                                    
                           
<?xpacket end="w"?></metadata>
<defs>
    <style>
      .cls-1 {
        fill: #c8c8c8;
        fill-rule: evenodd;
      }
    </style>
  </defs>
  <path class="cls-1" d="M1521.98,4978.65c0.73,0.73,1.5,1.42,2.16,2.22a6.709,6.709,0,0,1,.77,1.14,0.816,0.816,0,0,1-.48,1.27h-3.22a2.433,2.433,0,0,1-2.04-.85c-0.45-.46-0.86-0.95-1.29-1.43a2.926,2.926,0,0,0-.58-0.53,0.667,0.667,0,0,0-1.07.27,3.483,3.483,0,0,0-.33,1.53,0.865,0.865,0,0,1-1.03,1.01,8.014,8.014,0,0,1-4.59-1.01,10.182,10.182,0,0,1-3.1-2.96,39.806,39.806,0,0,1-4.07-7.41c-0.26-.59-0.07-0.9.56-0.91q1.575-.03,3.15,0a0.912,0.912,0,0,1,.87.66,20.238,20.238,0,0,0,2.13,4.04,3.487,3.487,0,0,0,.81.9,0.481,0.481,0,0,0,.83-0.25,2.936,2.936,0,0,0,.19-0.84,12.835,12.835,0,0,0-.06-2.97,1.225,1.225,0,0,0-1.03-1.13c-0.3-.06-0.26-0.18-0.11-0.36a1.147,1.147,0,0,1,.99-0.5h3.63a0.882,0.882,0,0,1,.77.97l0.01,4.12a1.2,1.2,0,0,0,.51,1.05,0.692,0.692,0,0,0,.72-0.36,12.989,12.989,0,0,0,2.05-3.21c0.24-.51.46-1.04,0.66-1.56a0.78,0.78,0,0,1,.82-0.58l3.5,0.01c0.1,0,.2,0,0.3.01a0.623,0.623,0,0,1,.57.95,8.727,8.727,0,0,1-1.39,2.47c-0.58.82-1.2,1.62-1.78,2.45a1.127,1.127,0,0,0,.17,1.79h0Z" transform="translate(-1503 -4970.53)"/>
</svg>
